<svg width="214" height="230" viewBox="0 0 214 230" fill="none" xmlns="http://www.w3.org/2000/svg">
<g filter="url(#filter0_d_2109_14212)">
<path d="M34.0391 122.241C34.6643 120.046 35.9148 117.537 37.7904 114.714C39.9786 111.892 42.323 109.227 44.8238 106.718C47.3246 104.209 49.9816 102.014 52.795 100.132C55.6084 97.937 58.1093 96.369 60.2975 95.4282C59.3597 93.5466 57.0153 91.0378 53.2641 87.9018C49.8255 84.7658 45.7616 81.6299 41.0726 78.4939C36.6962 75.3579 32.3198 72.6923 27.9435 70.4971C23.8797 67.9883 20.9099 66.4203 19.0343 65.7931C24.3485 66.1067 29.0376 64.6955 33.1014 61.5596C37.1651 58.4236 41.0726 54.5036 44.8238 49.7996C48.8876 44.782 53.2639 39.4509 57.9529 33.8061C62.6419 28.1613 68.2688 23.1438 74.8334 18.7534C81.398 14.0494 89.213 10.2862 98.2783 7.46382C107.656 4.64144 118.91 3.54386 132.039 4.17106C141.73 4.79825 150.482 6.83664 158.297 10.2862C166.425 13.7358 173.302 18.1262 178.929 23.4574C184.556 28.4749 188.62 34.2765 191.121 40.8621C193.934 47.134 194.872 53.406 193.934 59.678L173.771 153.287C173.771 157.677 174.396 162.381 175.647 167.399C176.897 172.103 178.929 176.18 181.742 179.629C184.556 183.079 187.994 185.431 192.058 186.685C196.435 187.626 201.593 186.372 207.532 182.922C205.344 192.33 202.218 199.856 198.154 205.501C194.09 211.146 189.557 215.38 184.556 218.202C179.554 221.024 174.24 222.592 168.613 222.906C162.986 223.22 157.516 222.749 152.202 221.495C148.451 220.554 144.387 218.829 140.01 216.32C135.634 214.125 131.57 210.989 127.819 206.912C124.38 202.836 121.567 197.818 119.379 191.86C117.191 185.901 116.409 178.845 117.034 170.692C117.66 168.81 118.597 164.89 119.848 158.932C121.411 152.66 123.13 145.447 125.006 137.294C126.881 128.826 128.913 119.889 131.101 110.481C133.289 101.073 135.321 92.2922 137.197 84.1386C139.073 75.6715 140.792 68.4587 142.355 62.5003C143.918 56.2284 144.856 52.1516 145.168 50.27C145.794 43.998 143.293 39.6077 137.666 37.0989C132.039 34.2765 126.1 33.6493 119.848 35.2173C112.658 37.0989 106.562 41.4893 101.561 48.3884C96.8717 55.2876 93.2768 62.1868 90.776 69.0859C95.7776 70.3403 100.779 73.3195 105.781 78.0235C110.782 82.7274 115.002 86.8042 118.441 90.2538C112.189 90.5674 107.187 92.2922 103.436 95.4282C99.6851 98.2506 96.0902 103.425 92.6516 110.951L68.7376 190.448H11.532L34.0391 122.241Z" fill="white"/>
<path d="M97.7019 5.54883C107.056 2.73365 118.134 1.60973 130.894 2.11914L132.135 2.17285L132.151 2.17383L132.169 2.1748C142.062 2.81514 151.048 4.89977 159.105 8.45605H159.104C167.39 11.9756 174.452 16.4727 180.26 21.9648L180.803 22.4561C186.359 27.5471 190.427 33.4302 192.969 40.0996C195.907 46.672 196.908 53.3103 195.912 59.9736L195.902 60.0371L195.889 60.0986L175.772 153.491C175.791 157.627 176.387 162.089 177.58 166.885L177.81 167.713C179.006 171.815 180.839 175.356 183.293 178.365C185.85 181.501 188.934 183.608 192.567 184.747C196.239 185.505 200.842 184.494 206.527 181.192L210.528 178.869L209.48 183.375C207.254 192.947 204.043 200.744 199.777 206.67C195.579 212.501 190.84 216.952 185.539 219.943C180.275 222.914 174.663 224.571 168.724 224.902C162.912 225.226 157.249 224.741 151.742 223.441L151.728 223.438L151.716 223.435C147.752 222.441 143.528 220.639 139.051 218.075C134.456 215.76 130.223 212.479 126.347 208.267L126.318 208.235L126.29 208.202C122.675 203.917 119.755 198.685 117.502 192.549C115.191 186.256 114.399 178.899 115.04 170.539L115.059 170.294L115.136 170.062C115.719 168.307 116.636 164.5 117.89 158.521L117.898 158.484L117.907 158.448C119.466 152.191 121.183 144.99 123.056 136.845C124.933 128.375 126.965 119.435 129.153 110.027C131.341 100.621 133.373 91.842 135.248 83.6904C137.123 75.2254 138.845 67.9992 140.414 62.0166C141.965 55.793 142.877 51.8167 143.184 50.001C143.452 47.2081 143.015 45.0023 142.024 43.2627C141.027 41.5128 139.363 40.0455 136.851 38.9258L136.81 38.9072L136.769 38.8867C131.586 36.2867 126.143 35.7033 120.348 37.1533C113.678 38.9004 107.959 42.9764 103.19 49.5488C99.0472 55.6496 95.7926 61.7284 93.4089 67.7832C98.0854 69.3828 102.665 72.347 107.151 76.5664C112.162 81.2796 116.399 85.3723 119.857 88.8418L123.032 92.0264L118.541 92.251C112.601 92.549 108.054 94.1754 104.719 96.9629L104.679 96.9951L104.638 97.0264C101.304 99.5351 97.8991 104.308 94.5261 111.662L70.6531 191.024L70.2244 192.448H8.76636L9.63257 189.822L32.1394 121.614C32.848 119.171 34.2054 116.496 36.1248 113.607L36.1648 113.547L36.2097 113.489C38.4482 110.602 40.8472 107.874 43.407 105.306C45.9815 102.723 48.7235 100.454 51.6326 98.5039C53.6653 96.9222 55.5796 95.6258 57.3728 94.6406C56.2751 93.2877 54.5188 91.5579 51.9812 89.4365L51.948 89.4082L51.9167 89.3799C48.5656 86.3236 44.5834 83.2479 39.9607 80.1562L39.9343 80.1387L39.908 80.1191C35.6083 77.0381 31.3208 74.4291 27.0466 72.2852L26.9675 72.2451L26.8933 72.1992C22.8283 69.6897 20.0333 68.2356 18.4001 67.6895L19.1521 63.7969C24.004 64.0832 28.2132 62.8059 31.8796 59.9766C35.7969 56.9537 39.5927 53.1522 43.2605 48.5527L43.2644 48.5469L43.2693 48.541C47.3389 43.5162 51.7212 38.1786 56.4148 32.5283C61.2357 26.7247 67.0091 21.58 73.7214 17.0908C80.476 12.2604 88.4729 8.42229 97.6833 5.55469L97.6931 5.55176L97.7019 5.54883Z" stroke="black" stroke-width="4"/>
</g>
<defs>
<filter id="filter0_d_2109_14212" x="0" y="0" width="213.524" height="230" filterUnits="userSpaceOnUse" color-interpolation-filters="sRGB">
<feFlood flood-opacity="0" result="BackgroundImageFix"/>
<feColorMatrix in="SourceAlpha" type="matrix" values="0 0 0 0 0 0 0 0 0 0 0 0 0 0 0 0 0 0 127 0" result="hardAlpha"/>
<feOffset dx="-6" dy="3"/>
<feComposite in2="hardAlpha" operator="out"/>
<feColorMatrix type="matrix" values="0 0 0 0 0 0 0 0 0 0 0 0 0 0 0 0 0 0 1 0"/>
<feBlend mode="normal" in2="BackgroundImageFix" result="effect1_dropShadow_2109_14212"/>
<feBlend mode="normal" in="SourceGraphic" in2="effect1_dropShadow_2109_14212" result="shape"/>
</filter>
</defs>
</svg>
