<svg width="738" height="144" viewBox="0 0 738 144" fill="none" xmlns="http://www.w3.org/2000/svg">
<g clip-path="url(#clip0_2140_54)">
<mask id="mask0_2140_54" style="mask-type:luminance" maskUnits="userSpaceOnUse" x="0" y="0" width="738" height="144">
<path d="M0 0L0 144L738 144V0L0 0Z" fill="white"/>
</mask>
<g mask="url(#mask0_2140_54)">
<path d="M0 144L0 0L738 0V144L0 144ZM57 106L211 106V93L154.42 93L149.5 98C146.79 100.75 144.29 103 143.95 103C143.61 103 141.43 101.2 139.12 99C136.81 96.8 134.47 95 133.94 95C133.4 95 130.92 96.88 128.43 99.17L123.91 103.34L118.67 98.17L113.44 93H57V106ZM214 106L367 106V93H310.56L305.27 98.23L299.98 103.45L290.55 94.02L285.77 98.72L281 103.43L275.72 98.21L270.44 93H214V106ZM210.33 50.33C210.7 49.97 211 47.04 211 43.83V38L57 38V51H113.44L118.67 45.83L123.91 40.66L128.43 44.83C130.92 47.12 133.42 49 133.98 49C134.54 49 136.8 47.2 139 45C141.2 42.8 143.35 41 143.79 41C144.22 41 146.79 43.25 149.5 46L154.42 51H182.05C197.24 51 209.97 50.7 210.33 50.33ZM371 106H524V93H467.56L462.29 98.21L457.01 103.42L452.72 99.21C450.36 96.9 448.01 95 447.5 95C446.99 95 444.64 96.9 442.28 99.21L437.99 103.42L432.71 98.21L427.44 93H371V106ZM310.56 51L367 51V38L214 38V51H270.44L275.71 45.79L280.99 40.58L285.28 44.79C287.64 47.1 289.99 49 290.5 49C291.01 49 293.36 47.1 295.72 44.79L300.01 40.58L305.29 45.79L310.56 51ZM467.56 51H524V38H371V51H427.44L432.71 45.79L437.99 40.58L442.28 44.79C444.64 47.1 446.99 49 447.5 49C448.01 49 450.36 47.1 452.72 44.79L457.01 40.58L462.29 45.79L467.56 51ZM136.19 35H289V22H232.56L222.01 32.42L217.72 28.21C215.36 25.9 212.97 24 212.42 24C211.86 24 209.65 25.8 207.5 28C205.35 30.2 203.12 32 202.55 32C201.97 32 199.56 29.75 197.19 27L192.89 22H164.5C148.89 22 135.95 22.34 135.75 22.75C135.55 23.16 135.56 26.09 135.78 29.25L136.19 35ZM602.33 121.33C603.17 120.5 603.21 112.71 602.39 110.58C601.85 109.16 594.13 109 525.39 109H449V122H505.44L510.71 116.79L515.99 111.58L520.28 115.79C522.64 118.1 525.03 120 525.58 120C526.14 120 528.35 118.2 530.5 116C532.65 113.8 534.81 112 535.3 112C535.79 112 538.22 114.25 540.69 117L545.19 122H573.43C588.96 122 601.97 121.7 602.33 121.33ZM680.33 105.33C680.7 104.97 681 102.04 681 98.83V93L624.56 93L619.28 98.21L614 103.43L603.95 93.52L599.47 98.26C597.01 100.87 594.64 103 594.21 103C593.78 103 591.2 100.74 588.49 97.98L583.55 92.97L527.5 93.5L526.9 106H603.29C645.3 106 679.97 105.7 680.33 105.33ZM602.38 34.29C602.77 33.9 602.96 31.09 602.79 28.04L602.5 22.5L573.86 22.23L545.21 21.97L540.7 26.98C538.22 29.74 535.79 32 535.3 32C534.81 32 532.65 30.2 530.5 28C528.35 25.8 526.14 24 525.58 24C525.03 24 522.64 25.9 520.28 28.21L515.99 32.42L510.71 27.21L505.44 22H449V35H525.33C567.32 35 601.99 34.68 602.38 34.29ZM445.33 121.33C445.7 120.97 446 118.04 446 114.83V109H291.9L292.2 115.25L292.5 121.5L320.52 121.77L348.55 122.03L353.49 117.02C356.2 114.26 358.76 112 359.17 112C359.59 112 361.94 113.96 364.4 116.35L368.88 120.7L373.15 116.35C375.49 113.96 377.9 112 378.5 112C379.09 112 381.79 114.25 384.5 117L389.42 122H417.05C432.24 122 444.97 121.7 445.33 121.33ZM232.56 122H289V109H212.5C162.21 109 135.98 109.34 135.93 110C135.9 110.55 135.84 113.36 135.8 116.25L135.73 121.5L192.86 122.03L197.18 117.02C199.56 114.26 201.97 112 202.55 112C203.12 112 205.35 113.8 207.5 116C209.65 118.2 211.86 120 212.42 120C212.97 120 215.36 118.1 217.72 115.79L222.01 111.58L232.56 122ZM291.9 35L446.1 35L445.8 28.75L445.5 22.5L417.48 22.23L389.45 21.97L384.51 26.98C381.8 29.74 379.11 31.99 378.54 31.98C377.97 31.97 375.73 30.17 373.57 27.98C371.42 25.79 369.39 24 369.07 24C368.76 24 366.53 25.8 364.12 28C361.72 30.2 359.45 32 359.09 32C358.72 32 356.2 29.74 353.49 26.98L348.55 21.97L320.52 22.23L292.5 22.5L292.2 28.75L291.9 35ZM680.38 50.29C680.77 49.9 680.96 47.09 680.79 44.04L680.5 38.5L527.5 38.5L526.9 51L583.58 51L588.5 46C591.21 43.25 593.85 41 594.37 41C594.89 41 597.02 42.8 599.11 45C601.21 47.2 603.41 49 604 49C604.59 49 606.9 47.2 609.12 45C611.34 42.8 613.48 41 613.87 41C614.26 41 616.79 43.25 619.5 46L624.42 51H652.05C667.24 51 679.99 50.68 680.38 50.29ZM132.36 121.3C132.75 120.92 132.82 119.98 132.53 119.22C132.24 118.46 132 115.85 132 113.42V109H2L2 122H35.44L45.99 111.58L50.28 115.79C52.64 118.1 54.99 120 55.5 120C56.01 120 58.36 118.1 60.72 115.79L65.01 111.58L70.29 116.79L75.56 122H103.61C119.04 122 131.98 121.69 132.36 121.3ZM702.56 122H736V109L606 109L605.83 111.75C605.67 114.46 605.71 119.79 605.9 121.25C605.96 121.66 618.7 122 634.22 122H662.44L667.71 116.79L672.99 111.58L677.28 115.79C679.64 118.1 681.99 120 682.5 120C683.01 120 685.36 118.1 687.72 115.79L692.01 111.58L697.29 116.79L702.56 122ZM606.18 35H736V22H702.56L697.29 27.21L692.01 32.42L687.72 28.21C685.36 25.9 683.01 24 682.5 24C681.99 24 679.64 25.9 677.28 28.21L672.99 32.42L667.7 27.2L662.4 21.97L633.95 22.23L605.5 22.5L605.29 25C605.18 26.38 605.33 29.19 605.63 31.25L606.18 35ZM132.25 29.75C132.45 26.86 132.55 24.05 132.47 23.5C132.38 22.87 121.87 22.4 103.82 22.23L75.3 21.97L70.61 26.98C68.03 29.74 65.58 32 65.17 32C64.75 32 62.43 29.97 60 27.5L55.58 22.99L50.79 27.71L46 32.43L40.72 27.21L35.44 22H2L2 35L131.9 35L132.25 29.75ZM467.41 90H524V74H486.42L482 78.5C479.57 80.97 477.13 83 476.58 83C476.03 83 473.64 81.1 471.28 78.78L466.97 74.56L463.27 78.26L459.56 81.97L467.41 90ZM117.21 86.3C119.29 84.26 121 82.15 121 81.6C121 80.23 115.87 75 114.52 75C113.91 75 111.43 77.03 108.99 79.51L104.57 84.01L94.44 74H57L57 90H113.42L117.21 86.3ZM274.87 65.88L278.9 62.5L270.58 54H214V70H251.58L256.5 65L261.43 60L270.83 69.26L274.87 65.88ZM274.21 86.3C276.29 84.26 278 82.32 278 81.99C278 81.66 276.42 79.86 274.49 77.99L270.99 74.6L266.71 78.8C264.35 81.11 261.97 83 261.42 83C260.87 83 258.43 80.97 256 78.5L251.58 74H214V90H270.42L274.21 86.3ZM431.21 86.3C433.29 84.26 435 82.32 435 81.99C435 81.66 433.42 79.86 431.49 77.99L427.99 74.6L423.71 78.8C421.35 81.11 419.04 83 418.57 83C418.09 83 415.54 80.97 412.9 78.5L408.09 74H371V90H427.42L431.21 86.3ZM310.41 90H367V74L329.42 74L324.5 79L319.57 84L309.98 74.55L306.27 78.26L302.56 81.97L310.41 90ZM486.42 70H524V54H467.41L459.56 62.03L463.27 65.74L466.98 69.45L476.57 60L481.5 65L486.42 70ZM329.42 70L367 70V54L310.23 54L306.51 58.12L302.78 62.25L306.38 65.85L309.98 69.45L319.57 60L324.5 65L329.42 70ZM431.48 66.02C433.42 64.14 435 62.38 435 62.1C435 61.81 433.33 59.88 431.3 57.79L427.59 54H371V70H408.12L413.36 65.04L418.61 60.08L423.28 64.76L427.96 69.43L431.48 66.02ZM118.71 65.8L122.02 62.59L117.8 58.3L113.58 54H56.92L57.5 69.5L75.94 69.77L94.39 70.05L99.61 64.89L104.82 59.74L109.32 64.37C111.8 66.92 114.18 69 114.61 69C115.05 69 116.89 67.56 118.71 65.8ZM643.42 70H681.08L680.5 54.5L652.56 54.23L624.62 53.97L620.81 57.69C618.71 59.73 617 61.85 617 62.4C617 63.78 622.13 69 623.48 69C624.09 69 626.35 67.2 628.5 65C630.65 62.8 632.9 61 633.49 61C634.09 61 636.57 63.03 639 65.5L643.42 70ZM154.42 90L211.08 90L210.79 82.25L210.5 74.5L192.06 74.23L173.61 73.95L163.04 84.39L158.73 79.7C156.36 77.11 154.01 75 153.51 75C153.01 75 151.11 76.44 149.29 78.2L145.98 81.41L150.2 85.7L154.42 90ZM173.42 70H211.08L210.79 62.25L210.5 54.5L182.56 54.23L154.62 53.97L150.81 57.69C148.71 59.73 147 61.85 147 62.4C147 63.78 152.13 69 153.48 69C154.09 69 156.29 67.2 158.38 65C160.46 62.8 162.71 61 163.38 61C164.04 61 166.57 63.03 169 65.5L173.42 70ZM587.19 86.31C589.29 84.27 591 82.09 591 81.48C591 80.87 589.7 79.12 588.1 77.6C584.8 74.43 583.47 74.75 578.56 79.91C576.95 81.61 575.13 83 574.52 83C573.91 83 571.43 80.97 569 78.5L564.58 74H526.92L527.5 89.5L583.38 90.03L587.19 86.31ZM680.37 89.29C680.76 88.91 680.95 85.42 680.79 81.54L680.5 74.5L662.06 74.23L643.61 73.95L638.23 79.23L632.85 84.5L628.68 79.74C626.38 77.12 624.07 74.99 623.55 74.99C623.02 75 621.11 76.44 619.29 78.2L615.98 81.41L620.2 85.7L624.42 90L652.04 90C667.24 90 679.98 89.68 680.37 89.29ZM588.71 65.8L592.02 62.59L587.78 58.28L583.55 53.97L555.53 54.23L527.5 54.5V69.5L545.94 69.77L564.39 70.05L569.74 64.77L575.08 59.5L579.51 64.25C581.95 66.86 584.27 69 584.68 69C585.08 69 586.89 67.56 588.71 65.8ZM232.41 19H289V5H249.39L246 8.5C244.13 10.43 242.11 12 241.5 12C240.89 12 238.87 10.43 237 8.5C233.08 4.46 230.57 4.12 227.31 7.17C224.24 10.06 224.36 10.76 228.7 15.21L232.41 19ZM249.39 139H289V125H232.41L228.51 128.99L224.61 132.98L227.49 135.99C231.2 139.87 232.85 139.78 237 135.5C238.87 133.57 240.89 132 241.5 132C242.11 132 244.13 133.57 246 135.5L249.39 139ZM75.41 19L132 19V5H92.41L84.59 13.01L80.5 9C75.67 4.26 73.33 4.06 70.12 8.13L67.73 11.14L71.57 15.07L75.41 19ZM510.52 136.25C511.85 134.74 512.95 133.29 512.97 133.04C512.99 132.79 511.33 130.88 509.3 128.79L505.59 125H449V139H488.59L492.5 135L496.41 130.99L500.5 135C505.31 139.72 507.25 139.96 510.52 136.25ZM562.41 139H602V125H545.41L541.51 128.99L537.61 132.98L540.49 135.99C542.08 137.65 544.06 139 544.9 139C545.74 139 548.26 137.2 550.5 135L554.59 130.99L562.41 139ZM92.41 139H132V125H75.41L71.51 128.99L67.61 132.98L70.49 135.99C72.08 137.65 74.06 139 74.9 139C75.74 139 78.26 137.2 80.5 135L84.59 130.99L92.41 139ZM545.41 19L602 19V5H562.41L554.59 13.01L550.5 9C548.26 6.8 545.74 5 544.9 5C544.06 5 542.08 6.34999 540.49 8.00999L537.61 11.02L545.41 19ZM667.2 136.31C668.74 134.84 670 133.39 670 133.11C670 132.82 668.33 130.88 666.3 128.79L662.59 125L606 125V139H645.59L653.41 130.99L657.5 135C659.74 137.2 662.21 139 662.98 139C663.76 139 665.65 137.79 667.2 136.31ZM666.21 15.3C668.29 13.26 670 11.37 670 11.1C670 9.89001 664.47 5 663.1 5C662.26 5 659.74 6.8 657.5 9L653.41 13.01L645.59 5H606V19H662.42L666.21 15.3ZM509.21 15.3C511.29 13.26 513 11.37 513 11.1C513 9.89001 507.47 5 506.1 5C505.26 5 502.74 6.8 500.5 9L496.41 13.01L492.5 9L488.59 5H449V19H505.42L509.21 15.3ZM197.2 136.31C198.74 134.84 200 133.39 200 133.11C200 132.82 198.33 130.88 196.3 128.79L192.59 125L136 125V139L155.75 138.97L175.5 138.93L179.47 134.97L183.44 131.01L187.51 135.01C189.74 137.2 192.21 139 192.98 139C193.76 139 195.65 137.79 197.2 136.31ZM196 15.38C198.2 13.39 200 11.51 200 11.19C200 9.91 194.53 5 193.1 5C192.26 5 189.76 6.78001 187.54 8.96001L183.5 12.93L179.21 8.96001L174.91 5H136V19H191.99L196 15.38ZM445.33 18.33C445.7 17.97 446 14.82 446 11.33V5H406.58L402.35 9.14L398.13 13.29L393.91 9.14C389.1 4.43 387.57 4.11 384.31 7.17C381.24 10.06 381.36 10.76 385.7 15.21L389.41 19H417.04C432.23 19 444.97 18.7 445.33 18.33ZM406.39 139H446.09L445.5 125.5L417.56 125.23L389.62 124.97L385.81 128.69C383.71 130.73 382 132.85 382 133.39C382 135.11 386.28 139 388.17 139C389.17 139 391.74 137.43 393.87 135.5C396 133.57 398.16 132 398.68 132C399.19 132 401.13 133.57 403 135.5L406.39 139ZM352.19 15.31C354.29 13.27 356 11.15 356 10.61C356 8.84 351.69 5 349.71 5C348.64 5 345.97 6.85 343.78 9.11L339.79 13.21L335.61 9.11L331.42 5H291.91L292.5 18.5L320.44 18.77L348.38 19.03L352.19 15.31ZM353.69 136.83C356.8 133.9 356.64 133.03 352.19 128.69L348.38 124.97L320.44 125.23L292.5 125.5L291.91 139H331.42L335.71 134.79L340 130.58L344.29 134.79C349.18 139.59 350.45 139.87 353.69 136.83ZM684 90H736V84.85C736 79.91 735.92 79.76 734.17 81.35C731.54 83.72 730.91 83.5 726 78.5L721.58 74H684V90ZM734.17 62.65C735.92 64.24 736 64.09 736 59.15V54H684V70H721.58L726 65.5C730.91 60.5 731.54 60.28 734.17 62.65ZM16.42 70H54V54H2V59.15C2 64.09 2.08 64.24 3.83 62.65C6.46 60.28 7.09 60.5 12 65.5L16.42 70ZM2 90H54L54 74H16.42L11.51 78.99L6.6 83.97L4.3 81.81L2 79.65L2 90ZM2 106H54V93H2L2 106ZM2 51H54V38H2L2 51ZM684 106H736V93H684V106ZM684 51H736V38H684V51ZM40.52 136.25C41.85 134.74 42.95 133.29 42.97 133.04C42.99 132.79 41.33 130.88 39.3 128.79L35.59 125H2L2 139H18.59L22.5 135L26.41 130.99L30.5 135C35.31 139.72 37.25 139.96 40.52 136.25ZM719.41 139H736V125H702.41L698.51 128.99L694.61 132.98L697.49 135.99C699.08 137.65 701.06 139 701.9 139C702.74 139 705.26 137.2 707.5 135L711.59 130.99L719.41 139ZM702.41 19H736V5H719.41L711.59 13.01L707.5 9C705.26 6.8 702.74 5 701.9 5C701.06 5 699.08 6.34999 697.49 8.00999L694.61 11.02L702.41 19ZM39.21 15.3C41.29 13.26 43 11.37 43 11.1C43 9.89001 37.47 5 36.1 5C35.26 5 32.74 6.8 30.5 9L26.41 13.01L22.5 9L18.59 5H2L2 19H35.42L39.21 15.3ZM578.48 76.02C580.42 74.14 582 72.33 582 72C582 71.67 580.42 69.86 578.48 67.98L574.96 64.57L571.25 68.29L567.53 72L571.25 75.71L574.96 79.43L578.48 76.02ZM166.48 76.02C168.42 74.14 170 72.33 170 72C170 71.67 168.42 69.86 166.48 67.98L162.96 64.57L159.25 68.29L155.53 72L159.25 75.71L162.96 79.43L166.48 76.02ZM108.48 76.02C110.42 74.14 112 72.33 112 72C112 71.67 110.42 69.86 108.48 67.98L104.96 64.57L97.53 72L104.96 79.43L108.48 76.02ZM421.48 76.02C423.42 74.14 425 72.33 425 72C425 71.67 423.42 69.86 421.48 67.98L417.96 64.57L414.25 68.29L410.53 72L414.25 75.71L417.96 79.43L421.48 76.02ZM460.48 76.02C462.42 74.14 464 72.33 464 72C464 71.67 462.42 69.86 460.48 67.98L456.96 64.57L453.25 68.29L449.53 72L453.25 75.71L456.96 79.43L460.48 76.02ZM636.48 76.02C638.42 74.14 640 72.33 640 72C640 71.67 638.42 69.86 636.48 67.98L632.96 64.57L629.25 68.29L625.53 72L629.25 75.71L632.96 79.43L636.48 76.02ZM284.48 76.02C286.42 74.14 288 72.33 288 72C288 71.67 286.42 69.86 284.48 67.98L280.96 64.57L277.25 68.29L273.53 72L277.25 75.71L280.96 79.43L284.48 76.02ZM323.48 76.02C325.42 74.14 327 72.33 327 72C327 71.67 325.42 69.86 323.48 67.98L319.96 64.57L316.25 68.29L312.53 72L316.25 75.71L319.96 79.43L323.48 76.02ZM363.01 127.33C364.65 125.87 366 124.2 366 123.63C366 123.06 364.56 121.11 362.8 119.29L359.6 115.99L352 123.41L355.2 126.7C356.95 128.52 358.76 130 359.2 130C359.65 130 361.36 128.8 363.01 127.33ZM127.5 76C129.43 74.13 131 72.33 131 72C131 71.67 129.43 69.87 127.5 68L124.01 64.62L121 67.5C119.35 69.08 118 71.11 118 72C118 72.89 119.35 74.92 121 76.5L124.01 79.38L127.5 76ZM673.09 130.31L680.01 123.6L676.3 119.8L672.59 116L669.3 119.2C667.48 120.95 666 122.96 666 123.65C666 124.33 667.6 126.11 669.54 127.6L673.09 130.31ZM672.4 28.01L680.03 20.56L676.58 17.11L673.13 13.66L669.57 16.38C667.6 17.88 666 19.62 666 20.25C666 20.89 667.44 22.89 669.2 24.71L672.4 28.01ZM598.2 56.31C599.74 54.84 601 53.17 601 52.62C601 51.28 595.9 46 594.61 46C594.05 46 592.11 47.44 590.29 49.2L586.99 52.4L590.19 55.7C591.95 57.51 593.84 59 594.39 59C594.94 59 596.65 57.79 598.2 56.31ZM539.2 127.31C540.74 125.84 542 124.17 542 123.62C542 122.28 536.9 117 535.61 117C535.05 117 533.11 118.44 531.29 120.2L527.99 123.4L531.19 126.7C532.95 128.51 534.84 130 535.39 130C535.94 130 537.65 128.79 539.2 127.31ZM598.2 95.31C599.74 93.84 601 92.17 601 91.62C601 90.28 595.9 85 594.61 85C594.05 85 592.11 86.44 590.29 88.2L586.99 91.4L590.19 94.7C591.95 96.51 593.84 98 594.39 98C594.94 98 596.65 96.79 598.2 95.31ZM539.2 24.31C540.74 22.84 542 21.17 542 20.62C542 19.28 536.9 14 535.61 14C535.05 14 533.11 15.44 531.29 17.2L527.99 20.4L531.19 23.7C532.95 25.51 534.84 27 535.39 27C535.94 27 537.65 25.79 539.2 24.31ZM128.2 56.31C129.74 54.84 131 53.17 131 52.62C131 51.28 125.9 46 124.61 46C124.05 46 122.11 47.44 120.29 49.2L116.99 52.4L120.19 55.7C121.95 57.51 123.84 59 124.39 59C124.94 59 126.65 57.79 128.2 56.31ZM128.2 95.31C129.74 93.84 131 92.17 131 91.62C131 90.28 125.9 85 124.61 85C124.05 85 122.11 86.44 120.29 88.2L116.99 91.4L120.19 94.7C121.95 96.51 123.84 98 124.39 98C124.94 98 126.65 96.79 128.2 95.31ZM304.2 56.31C305.74 54.84 307 53.17 307 52.62C307 51.28 301.9 46 300.61 46C300.05 46 298.11 47.44 296.29 49.2L292.99 52.4L296.19 55.7C297.95 57.51 299.84 59 300.39 59C300.94 59 302.65 57.79 304.2 56.31ZM304.2 95.31C305.74 93.84 307 92.17 307 91.62C307 90.28 301.9 85 300.61 85C300.05 85 298.11 86.44 296.29 88.2L292.99 91.4L296.19 94.7C297.95 96.51 299.84 98 300.39 98C300.94 98 302.65 96.79 304.2 95.31ZM147.71 55.8L151.01 52.6L147.81 49.3C146.05 47.49 144.11 46 143.49 46C142.19 46 137 51.19 137 52.5C137 53.75 142.16 59 143.39 59C143.95 59 145.89 57.56 147.71 55.8ZM147.71 94.8L151.01 91.6L147.81 88.3C146.05 86.49 144.11 85 143.49 85C142.19 85 137 90.19 137 91.5C137 92.75 142.16 98 143.39 98C143.95 98 145.89 96.56 147.71 94.8ZM441.71 94.8L445.01 91.6L441.81 88.3C440.05 86.49 438.11 85 437.49 85C436.19 85 431 90.19 431 91.5C431 92.75 436.16 98 437.39 98C437.95 98 439.89 96.56 441.71 94.8ZM382.71 126.8L386.01 123.6L382.81 120.3C381.05 118.49 379.11 117 378.49 117C377.19 117 372 122.19 372 123.5C372 124.75 377.16 130 378.39 130C378.95 130 380.89 128.56 382.71 126.8ZM137.48 66.02C139.42 64.14 141 62.27 141 61.85C141 60.88 134.61 56 133.34 56C132.81 56 131.07 57.36 129.48 59.02L126.58 62.05L133.96 69.43L137.48 66.02ZM616.98 76.52C620.83 72.83 620.79 70.94 616.79 67.63L613.57 64.96L610.05 68.48L606.53 72L613.95 79.42L616.98 76.52ZM69.01 127.33C70.65 125.87 72 124.21 72 123.64C72 122.28 66.91 117 65.61 117C65.05 117 63.11 118.44 61.29 120.2L57.99 123.4L61.19 126.7C62.95 128.51 64.76 130 65.2 130C65.65 130 67.36 128.8 69.01 127.33ZM69.2 24.31C70.74 22.84 72 21.11 72 20.48C72 19.28 66.54 14 65.31 14C64.92 14 63.11 15.44 61.29 17.2L57.99 20.4L61.19 23.7C62.95 25.51 64.84 27 65.39 27C65.94 27 67.65 25.79 69.2 24.31ZM372.45 14.91C374.4 13.2 376 11.53 376 11.2C376 9.87 370.51 5 369 5C368.11 5 366.06 6.36999 364.46 8.03999L361.54 11.09L365.22 14.56L368.9 18.03L372.45 14.91ZM137.57 85.38C139.46 83.94 141 82.45 141 82.08C141 81.7 139.42 79.86 137.48 77.98L133.96 74.57L126.58 81.95L129.48 84.98C131.07 86.64 132.77 88 133.25 88C133.74 88 135.68 86.82 137.57 85.38ZM597.56 75.94C599.45 74.11 601 72.33 601 72C601 71.67 599.44 69.88 597.52 68.02L594.05 64.65L591.02 67.82C587.25 71.77 587.25 72.8 591.06 76.39L594.12 79.28L597.56 75.94ZM373.2 136.31C374.74 134.84 376 133.29 376 132.89C376 132.48 374.36 130.79 372.36 129.14L368.72 126.14L365.13 129.53L361.54 132.91L364.46 135.96C368.04 139.7 369.6 139.76 373.2 136.31ZM617.2 56.31C618.74 54.84 620 53.17 620 52.62C620 51.28 614.9 46 613.62 46C612.22 46 607 51.13 607 52.5C607 53.81 612.19 59 613.5 59C613.99 59 615.65 57.79 617.2 56.31ZM617.2 95.31C618.74 93.84 620 92.17 620 91.62C620 90.28 614.9 85 613.62 85C612.22 85 607 90.13 607 91.5C607 92.81 612.19 98 613.5 98C613.99 98 615.65 96.79 617.2 95.31ZM441.2 56.31C442.74 54.84 444 53.17 444 52.62C444 51.28 438.9 46 437.62 46C436.22 46 431 51.13 431 52.5C431 53.81 436.19 59 437.5 59C437.99 59 439.65 57.79 441.2 56.31ZM382.2 24.31C383.74 22.84 385 21.17 385 20.62C385 19.28 379.9 14 378.62 14C377.22 14 372 19.13 372 20.5C372 21.81 377.19 27 378.5 27C378.99 27 380.65 25.79 382.2 24.31ZM206.2 127.31C207.74 125.84 209 124.17 209 123.62C209 122.28 203.9 117 202.62 117C201.22 117 196 122.13 196 123.5C196 124.81 201.19 130 202.5 130C202.99 130 204.65 128.79 206.2 127.31ZM206.2 24.31C207.74 22.84 209 21.17 209 20.62C209 19.28 203.9 14 202.62 14C201.22 14 196 19.13 196 20.5C196 21.81 201.19 27 202.5 27C202.99 27 204.65 25.79 206.2 24.31ZM363.75 23.68C364.99 22.56 366 21.13 366 20.49C366 19.23 360.53 14 359.2 14C358.76 14 356.95 15.49 355.19 17.3L351.99 20.6L355.41 23.91C358.99 27.38 359.66 27.36 363.75 23.68ZM607.48 66.02C609.42 64.14 611 62.38 611 62.11C611 61.11 605.59 56 604.56 56.03C603.98 56.05 601.98 57.44 600.12 59.13L596.74 62.21L600.35 65.82L603.96 69.43L607.48 66.02ZM146.78 76.3C150.75 72.76 150.76 71.51 146.83 67.84L143.66 64.88L140.09 68.44L136.53 72L140.08 75.55L143.64 79.1L146.78 76.3ZM608.1 85.25C609.58 83.74 610.83 82.25 610.89 81.95C610.95 81.64 609.42 79.86 607.48 77.98L603.96 74.57L600.35 78.18L596.74 81.79L600.12 84.87C601.98 86.56 603.93 87.95 604.46 87.97C604.99 87.99 606.63 86.76 608.1 85.25ZM479.41 76.05C481.39 74.16 483 72.33 483 72C483 71.67 481.46 69.9 479.59 68.08L476.17 64.78L473.12 68.14C471.43 69.99 470.05 71.74 470.03 72.04C470.01 72.33 471.31 74.13 472.91 76.04L475.83 79.5L479.41 76.05ZM264.72 76.21C268.77 72.81 268.78 71.53 264.83 67.84L261.66 64.88L258.09 68.44L254.53 72L258.02 75.46L261.5 78.91L264.72 76.21ZM695.48 127.02C697.42 125.14 699 123.27 699 122.85C699 122.44 697.4 120.89 695.46 119.4L691.91 116.69L688.44 120.06L684.96 123.43L688.46 126.93L691.96 130.43L695.48 127.02ZM49.63 23.88L53.04 20.57L49.52 17.05L46 13.53L42.31 17.23C38.63 20.9 38.62 20.93 40.55 23.05C44.42 27.34 45.92 27.47 49.63 23.88ZM293.98 66.52C297.68 62.98 297.7 62.34 294.31 58.8C290.93 55.27 290.05 55.29 286.48 59.02L283.58 62.05L287.27 65.73L290.95 69.42L293.98 66.52ZM294.2 85.31C297.73 81.93 297.71 81.05 293.98 77.48L290.95 74.58L287.27 78.27L283.58 81.95L286.48 84.98C290.02 88.68 290.66 88.7 294.2 85.31ZM695.4 24.51C697.38 23 699 21.45 699 21.08C699 20.7 697.42 18.87 695.5 17L692 13.61L688.48 17.02L684.96 20.43L688.38 23.84L691.79 27.26L695.4 24.51ZM49.52 126.98L53.04 123.57L46.21 116.74L42.6 119.49C40.62 121 39 122.55 39 122.92C39 123.3 40.58 125.13 42.5 127L46 130.39L49.52 126.98ZM451.2 85.31C452.74 83.84 454 82.35 454 82.01C454 81.67 452.43 79.87 450.5 78L447.01 74.62L444 77.5C442.35 79.08 441 80.88 441 81.5C441 82.81 446.19 88 447.5 88C447.99 88 449.65 86.79 451.2 85.31ZM450.47 66.03C452.41 64.15 454 62.38 454 62.11C454 61.15 448.62 56 447.62 56C446.36 56 441 61.06 441 62.24C441 62.72 442.33 64.54 443.97 66.28L446.93 69.46L450.47 66.03ZM460.48 95.02L464.01 91.6L460.81 88.3C459.05 86.49 457.36 85.01 457.05 85.03C456.75 85.05 454.98 86.44 453.12 88.13L449.74 91.21L453.35 94.82L456.96 98.43L460.48 95.02ZM221.96 27.43L229.04 20.57L222.04 13.57L218.5 17L214.96 20.43L221.96 27.43ZM280.96 98.43L288.04 91.57L281.04 84.57L273.96 91.43L280.96 98.43ZM225.5 127L229.04 123.57L222.04 116.57L214.96 123.43L218.46 126.93L221.96 130.43L225.5 127ZM280.96 59.43L288.04 52.57L281.04 45.57L273.96 52.43L280.96 59.43ZM456.96 59.43L464.04 52.57L457.04 45.57L449.96 52.43L456.96 59.43ZM515.96 27.43L523.04 20.57L516.04 13.57L512.5 17L508.96 20.43L512.46 23.93L515.96 27.43ZM519.5 127L523.04 123.57L516.04 116.57L512.5 120L508.96 123.43L512.46 126.93L515.96 130.43L519.5 127ZM303.7 75.81C305.51 74.05 307 72.33 307 72C307 71.67 305.51 69.95 303.7 68.19L300.4 64.99L293.61 72L300.4 79.01L303.7 75.81ZM440.7 75.81C442.51 74.05 444 72.33 444 72C444 71.67 442.51 69.95 440.7 68.19L437.4 64.99L430.61 72L437.4 79.01L440.7 75.81ZM59.2 14.31C62.63 11.02 62.68 9.99 59.56 7.05C56.59 4.26 53.35 4.82 50.64 8.58C48.79 11.15 48.8 11.18 51.58 14.08C55.02 17.67 55.67 17.69 59.2 14.31ZM529.69 136.83C532.64 134.05 532.59 133.23 529.31 129.8C525.93 126.27 525.05 126.3 521.5 130L518.63 133L521.5 136C524.92 139.57 526.59 139.74 529.69 136.83ZM529.2 14.31C532.57 11.08 532.64 10.31 529.83 7.31C526.93 4.23 524.95 4.4 521.5 8L518.63 11L521.5 14C525.02 17.67 525.66 17.7 529.2 14.31ZM686.2 14.31C687.74 12.84 689 11.4 689 11.12C689 9.91 683.49 5 682.13 5C680.33 5 676 8.88001 676 10.49C676 11.81 681.18 17 682.5 17C682.99 17 684.65 15.79 686.2 14.31ZM216.2 14.31C217.74 12.84 219 11.4 219 11.12C219 9.91 213.49 5 212.13 5C210.33 5 206 8.88001 206 10.49C206 11.81 211.18 17 212.5 17C212.99 17 214.65 15.79 216.2 14.31ZM216.2 136.31C217.74 134.84 219 133.4 219 133.12C219 132.15 213.62 127 212.62 127C211.29 127 206 132.09 206 133.37C206 134.97 210.2 139 211.87 139C212.71 139 214.65 137.79 216.2 136.31ZM59.93 136.37C59.97 136.31 60.01 136.26 60.05 136.21C61.22 134.72 61.83 133.94 61.81 133.19C61.78 132.36 60.98 131.55 59.31 129.8C55.93 126.27 55.05 126.3 51.5 130L48.63 133L51.5 136C55.04 139.69 57.23 139.79 59.93 136.37ZM733.96 77.54C735.31 76.31 736 74.44 736 72C736 69.56 735.31 67.69 733.96 66.46C731.96 64.65 731.85 64.68 728.23 68.31L724.53 72L728.23 75.69C731.85 79.32 731.96 79.35 733.96 77.54ZM686.2 136.31C687.74 134.84 689 133.4 689 133.12C689 132.09 683.59 127 682.5 127C680.49 127 675.72 132.74 676.58 134.13C680.01 139.67 682.17 140.16 686.2 136.31ZM9.71 75.8C11.52 74.04 13 72.33 13 72C13 71.67 11.44 69.88 9.54 68.04L6.08 64.68L4.07 67.09C1.32 70.4 1.38 75.46 4.21 77.44C6.29 78.89 6.61 78.8 9.71 75.8ZM517.45 7.03999C519.62 5.23999 519.43 5 515.79 5C512.79 5 512.68 5.11 514.24 6.66C515.61 8.04 516.17 8.09999 517.45 7.03999ZM556.45 7.03999C558.62 5.23999 558.43 5 554.79 5C551.79 5 551.68 5.11 553.24 6.66C554.61 8.04 555.17 8.09999 556.45 7.03999ZM693.45 7.03999C695.62 5.23999 695.43 5 691.79 5C688.79 5 688.68 5.11 690.24 6.66C691.61 8.04 692.17 8.09999 693.45 7.03999ZM654.45 7.03999C656.62 5.23999 656.43 5 652.79 5C649.79 5 649.68 5.11 651.24 6.66C652.61 8.04 653.17 8.09999 654.45 7.03999ZM86.45 7.03999C88.62 5.23999 88.43 5 84.79 5C81.79 5 81.68 5.11 83.24 6.66C84.61 8.04 85.17 8.09999 86.45 7.03999ZM184.45 7.03999C186.62 5.23999 186.43 5 182.79 5C179.79 5 179.68 5.11 181.24 6.66C182.61 8.04 183.17 8.09999 184.45 7.03999ZM223.45 7.03999C225.62 5.23999 225.43 5 221.79 5C218.79 5 218.68 5.11 220.24 6.66C221.61 8.04 222.17 8.09999 223.45 7.03999ZM47.45 7.03999C49.62 5.23999 49.43 5 45.79 5C42.79 5 42.68 5.11 44.24 6.66C45.61 8.04 46.17 8.09999 47.45 7.03999ZM341.45 7.03999C343.62 5.23999 343.43 5 339.79 5C336.79 5 336.68 5.11 338.24 6.66C339.61 8.04 340.17 8.09999 341.45 7.03999ZM399.45 7.03999C401.62 5.23999 401.43 5 397.79 5C394.79 5 394.68 5.11 396.24 6.66C397.61 8.04 398.17 8.09999 399.45 7.03999ZM380.45 7.03999C382.62 5.23999 382.43 5 378.79 5C375.79 5 375.68 5.11 377.24 6.66C378.61 8.04 379.17 8.09999 380.45 7.03999ZM516 139C519.24 139 519.33 138.9 517.71 137.29C516.1 135.67 515.9 135.67 514.29 137.29C512.67 138.9 512.76 139 516 139ZM535 139C538.24 139 538.33 138.9 536.71 137.29C535.1 135.67 534.9 135.67 533.29 137.29C531.67 138.9 531.76 139 535 139ZM398 139C401.24 139 401.33 138.9 399.71 137.29C398.1 135.67 397.9 135.67 396.29 137.29C394.67 138.9 394.76 139 398 139ZM653 139C656.24 139 656.33 138.9 654.71 137.29C653.1 135.67 652.9 135.67 651.29 137.29C649.67 138.9 649.76 139 653 139ZM692 139C695.24 139 695.33 138.9 693.71 137.29C692.1 135.67 691.9 135.67 690.29 137.29C688.67 138.9 688.76 139 692 139ZM711 139C714.24 139 714.33 138.9 712.71 137.29C711.1 135.67 710.9 135.67 709.29 137.29C707.67 138.9 707.76 139 711 139ZM340 139C343.24 139 343.33 138.9 341.71 137.29C340.1 135.67 339.9 135.67 338.29 137.29C336.67 138.9 336.76 139 340 139ZM359 139C362.24 139 362.33 138.9 360.71 137.29C359.1 135.67 358.9 135.67 357.29 137.29C355.67 138.9 355.76 139 359 139ZM183 139C186.24 139 186.33 138.9 184.71 137.29C183.1 135.67 182.9 135.67 181.29 137.29C179.67 138.9 179.76 139 183 139ZM222 139C225.24 139 225.33 138.9 223.71 137.29C222.1 135.67 221.9 135.67 220.29 137.29C218.67 138.9 218.76 139 222 139ZM46 139C49.24 139 49.33 138.9 47.71 137.29C46.1 135.67 45.9 135.67 44.29 137.29C42.67 138.9 42.76 139 46 139ZM26.39 139C28.28 139 28.78 138.6 28.34 137.45C27.66 135.68 24.87 135.88 24.25 137.75C23.99 138.53 24.79 139 26.39 139ZM65.71 139C68.22 139 68.3 138.87 66.81 137.38C65.92 136.49 64.7 136.07 64.1 136.44C62.11 137.67 62.95 139 65.71 139ZM497.9 7.56C499.89 6.33 499.05 5 496.29 5C493.78 5 493.7 5.13 495.19 6.62C496.08 7.51 497.3 7.93 497.9 7.56ZM241.71 139C244.22 139 244.3 138.87 242.81 137.38C241.92 136.49 240.7 136.07 240.1 136.44C238.11 137.67 238.95 139 241.71 139ZM66.62 6.91C68.2 5.6 68.16 5.48 66.08 5.17C63.3 4.76 62.26 5.66 63.77 7.17C64.63 8.03 65.34 7.96 66.62 6.91ZM242.62 6.91C244.2 5.6 244.16 5.48 242.08 5.17C239.3 4.76 238.26 5.66 239.77 7.17C240.63 8.03 241.34 7.96 242.62 6.91ZM378.62 139C380.79 139 381.04 138.75 380.05 137.56C379.39 136.77 378.21 136.37 377.43 136.67C375.08 137.57 375.81 139 378.62 139ZM27.57 7.33C29.92 6.43 29.19 5 26.38 5C24.21 5 23.96 5.25 24.95 6.44C25.61 7.23 26.79 7.63 27.57 7.33ZM672.62 139C674.79 139 675.04 138.75 674.05 137.56C673.39 136.77 672.21 136.37 671.43 136.67C669.08 137.57 669.81 139 672.62 139ZM496.38 139C499.36 139 499.56 138.71 497.63 137.11C496.59 136.25 495.96 136.34 495.01 137.49C493.94 138.77 494.15 139 496.38 139ZM84.38 139C87.36 139 87.56 138.71 85.63 137.11C84.59 136.25 83.96 136.34 83.01 137.49C81.94 138.77 82.15 139 84.38 139ZM203.63 6.89C205.56 5.29 205.36 5 202.38 5C200.15 5 199.94 5.22999 201.01 6.50999C201.96 7.65999 202.59 7.75 203.63 6.89ZM202.38 139C205.36 139 205.56 138.71 203.63 137.11C202.59 136.25 201.96 136.34 201.01 137.49C199.94 138.77 200.15 139 202.38 139ZM536.63 6.89C538.56 5.29 538.36 5 535.38 5C533.15 5 532.94 5.22999 534.01 6.50999C534.96 7.65999 535.59 7.75 536.63 6.89ZM554.38 139C557.36 139 557.56 138.71 555.63 137.11C554.59 136.25 553.96 136.34 553.01 137.49C551.94 138.77 552.15 139 554.38 139ZM712.63 6.89C714.56 5.29 714.36 5 711.38 5C709.15 5 708.94 5.22999 710.01 6.50999C710.96 7.65999 711.59 7.75 712.63 6.89ZM673.63 6.89C675.56 5.29 675.36 5 672.38 5C670.15 5 669.94 5.22999 671.01 6.50999C671.96 7.65999 672.59 7.75 673.63 6.89ZM360.88 6.69C362.1 5.69 361.98 5.45 360.08 5.17C357.28 4.76 356.08 5.81 358 7C358.89 7.55 359.98 7.44 360.88 6.69Z" fill="#231A01"/>
</g>
</g>
<defs>
<clipPath id="clip0_2140_54">
<rect width="144" height="738" fill="white" transform="matrix(0 -1 1 0 0 144)"/>
</clipPath>
</defs>
</svg>
