<svg width="144" height="738" viewBox="0 0 144 738" fill="none" xmlns="http://www.w3.org/2000/svg">
<g clip-path="url(#clip0_2087_14208)">
<path d="M0 0H144V738H0V0ZM38 57V211H51V154.42L46 149.5C43.25 146.79 41 144.29 41 143.95C41 143.61 42.8 141.43 45 139.12C47.2 136.81 49 134.47 49 133.94C49 133.4 47.12 130.92 44.83 128.43L40.66 123.91L45.83 118.67L51 113.44V57H38ZM38 214V367H51V310.56L45.77 305.27L40.55 299.98L49.98 290.55L45.28 285.77L40.57 281L45.79 275.72L51 270.44V214H38ZM93.67 210.33C94.03 210.7 96.96 211 100.17 211H106V57H93V113.44L98.17 118.67L103.34 123.91L99.17 128.43C96.88 130.92 95 133.42 95 133.98C95 134.54 96.8 136.8 99 139C101.2 141.2 103 143.35 103 143.79C103 144.22 100.75 146.79 98 149.5L93 154.42V182.05C93 197.24 93.3 209.97 93.67 210.33ZM38 371V524H51V467.56L45.79 462.29L40.58 457.01L44.79 452.72C47.1 450.36 49 448.01 49 447.5C49 446.99 47.1 444.64 44.79 442.28L40.58 437.99L45.79 432.71L51 427.44V371H38ZM93 310.56V367H106V214H93V270.44L98.21 275.71L103.42 280.99L99.21 285.28C96.9 287.64 95 289.99 95 290.5C95 291.01 96.9 293.36 99.21 295.72L103.42 300.01L98.21 305.29L93 310.56ZM93 467.56V524H106V371H93V427.44L98.21 432.71L103.42 437.99L99.21 442.28C96.9 444.64 95 446.99 95 447.5C95 448.01 96.9 450.36 99.21 452.72L103.42 457.01L98.21 462.29L93 467.56ZM109 136.19V289H122V232.56L111.58 222.01L115.79 217.72C118.1 215.36 120 212.97 120 212.42C120 211.86 118.2 209.65 116 207.5C113.8 205.35 112 203.12 112 202.55C112 201.97 114.25 199.56 117 197.19L122 192.89V164.5C122 148.89 121.66 135.95 121.25 135.75C120.84 135.55 117.91 135.56 114.75 135.78L109 136.19ZM22.67 602.33C23.5 603.17 31.29 603.21 33.42 602.39C34.84 601.85 35 594.13 35 525.39V449H22V505.44L27.21 510.71L32.42 515.99L28.21 520.28C25.9 522.64 24 525.03 24 525.58C24 526.14 25.8 528.35 28 530.5C30.2 532.65 32 534.81 32 535.3C32 535.79 29.75 538.22 27 540.69L22 545.19V573.43C22 588.96 22.3 601.97 22.67 602.33ZM38.67 680.33C39.03 680.7 41.96 681 45.17 681H51V624.56L45.79 619.28L40.57 614L50.48 603.95L45.74 599.47C43.13 597.01 41 594.64 41 594.21C41 593.78 43.26 591.2 46.02 588.49L51.03 583.55L50.5 527.5L38 526.9V603.29C38 645.3 38.3 679.97 38.67 680.33ZM109.71 602.38C110.1 602.77 112.91 602.96 115.96 602.79L121.5 602.5L121.77 573.86L122.03 545.21L117.02 540.7C114.26 538.22 112 535.79 112 535.3C112 534.81 113.8 532.65 116 530.5C118.2 528.35 120 526.14 120 525.58C120 525.03 118.1 522.64 115.79 520.28L111.58 515.99L116.79 510.71L122 505.44V449H109V525.33C109 567.32 109.32 601.99 109.71 602.38ZM22.67 445.33C23.03 445.7 25.96 446 29.17 446H35V291.9L28.75 292.2L22.5 292.5L22.23 320.52L21.97 348.55L26.98 353.49C29.74 356.2 32 358.76 32 359.17C32 359.59 30.04 361.94 27.65 364.4L23.3 368.88L27.65 373.15C30.04 375.49 32 377.9 32 378.5C32 379.09 29.75 381.79 27 384.5L22 389.42V417.05C22 432.24 22.3 444.97 22.67 445.33ZM22 232.56V289H35V212.5C35 162.21 34.66 135.98 34 135.93C33.45 135.9 30.64 135.84 27.75 135.8L22.5 135.73L21.97 192.86L26.98 197.18C29.74 199.56 32 201.97 32 202.55C32 203.12 30.2 205.35 28 207.5C25.8 209.65 24 211.86 24 212.42C24 212.97 25.9 215.36 28.21 217.72L32.42 222.01L22 232.56ZM109 291.9V446.1L115.25 445.8L121.5 445.5L121.77 417.48L122.03 389.45L117.02 384.51C114.26 381.8 112.01 379.11 112.02 378.54C112.03 377.97 113.83 375.73 116.02 373.57C118.21 371.42 120 369.39 120 369.07C120 368.76 118.2 366.53 116 364.12C113.8 361.72 112 359.45 112 359.09C112 358.72 114.26 356.2 117.02 353.49L122.03 348.55L121.77 320.52L121.5 292.5L115.25 292.2L109 291.9ZM93.71 680.38C94.1 680.77 96.91 680.96 99.96 680.79L105.5 680.5V527.5L93 526.9V583.58L98 588.5C100.75 591.21 103 593.85 103 594.37C103 594.89 101.2 597.02 99 599.11C96.8 601.21 95 603.41 95 604C95 604.59 96.8 606.9 99 609.12C101.2 611.34 103 613.48 103 613.87C103 614.26 100.75 616.79 98 619.5L93 624.42V652.05C93 667.24 93.32 679.99 93.71 680.38ZM22.7 132.36C23.08 132.75 24.02 132.82 24.78 132.53C25.54 132.24 28.15 132 30.58 132H35V2H22V35.44L32.42 45.99L28.21 50.28C25.9 52.64 24 54.99 24 55.5C24 56.01 25.9 58.36 28.21 60.72L32.42 65.01L27.21 70.29L22 75.56V103.61C22 119.04 22.31 131.98 22.7 132.36ZM22 702.56V736H35V606L32.25 605.83C29.54 605.67 24.21 605.71 22.75 605.9C22.34 605.96 22 618.7 22 634.22V662.44L27.21 667.71L32.42 672.99L28.21 677.28C25.9 679.64 24 681.99 24 682.5C24 683.01 25.9 685.36 28.21 687.72L32.42 692.01L27.21 697.29L22 702.56ZM109 606.18V736H122V702.56L116.79 697.29L111.58 692.01L115.79 687.72C118.1 685.36 120 683.01 120 682.5C120 681.99 118.1 679.64 115.79 677.28L111.58 672.99L116.8 667.7L122.03 662.4L121.77 633.95L121.5 605.5L119 605.29C117.62 605.18 114.81 605.33 112.75 605.63L109 606.18ZM114.25 132.25C117.14 132.45 119.95 132.55 120.5 132.47C121.13 132.38 121.6 121.87 121.77 103.82L122.03 75.3L117.02 70.61C114.26 68.03 112 65.58 112 65.17C112 64.75 114.03 62.43 116.5 60L121.01 55.58L116.29 50.79L111.57 46L116.79 40.72L122 35.44V2H109V131.9L114.25 132.25ZM54 467.41V524H70V486.42L65.5 482C63.03 479.57 61 477.13 61 476.58C61 476.03 62.9 473.64 65.22 471.28L69.44 466.97L65.74 463.27L62.03 459.56L54 467.41ZM57.7 117.21C59.74 119.29 61.85 121 62.4 121C63.77 121 69 115.87 69 114.52C69 113.91 66.97 111.43 64.49 108.99L59.99 104.57L70 94.44V57H54V113.42L57.7 117.21ZM78.12 274.87L81.5 278.9L90 270.58V214H74V251.58L79 256.5L84 261.43L74.74 270.83L78.12 274.87ZM57.7 274.21C59.74 276.29 61.68 278 62.01 278C62.34 278 64.14 276.42 66.01 274.49L69.4 270.99L65.2 266.71C62.89 264.35 61 261.97 61 261.42C61 260.87 63.03 258.43 65.5 256L70 251.58V214H54V270.42L57.7 274.21ZM57.7 431.21C59.74 433.29 61.68 435 62.01 435C62.34 435 64.14 433.42 66.01 431.49L69.4 427.99L65.2 423.71C62.89 421.35 61 419.04 61 418.57C61 418.09 63.03 415.54 65.5 412.9L70 408.09V371H54V427.42L57.7 431.21ZM54 310.41V367H70V329.42L65 324.5L60 319.57L69.45 309.98L65.74 306.27L62.03 302.56L54 310.41ZM74 486.42V524H90V467.41L81.97 459.56L78.26 463.27L74.55 466.98L84 476.57L79 481.5L74 486.42ZM74 329.42V367H90V310.23L85.88 306.51L81.75 302.78L78.15 306.38L74.55 309.98L84 319.57L79 324.5L74 329.42ZM77.98 431.48C79.86 433.42 81.62 435 81.9 435C82.19 435 84.12 433.33 86.21 431.3L90 427.59V371H74V408.12L78.96 413.36L83.92 418.61L79.24 423.28L74.57 427.96L77.98 431.48ZM78.2 118.71L81.41 122.02L85.7 117.8L90 113.58V56.92L74.5 57.5L74.23 75.94L73.95 94.39L79.11 99.61L84.26 104.82L79.63 109.32C77.08 111.8 75 114.18 75 114.61C75 115.05 76.44 116.89 78.2 118.71ZM74 643.42V681.08L89.5 680.5L89.77 652.56L90.03 624.62L86.31 620.81C84.27 618.71 82.15 617 81.6 617C80.22 617 75 622.13 75 623.48C75 624.09 76.8 626.35 79 628.5C81.2 630.65 83 632.9 83 633.49C83 634.09 80.97 636.57 78.5 639L74 643.42ZM54 154.42V211.08L61.75 210.79L69.5 210.5L69.77 192.06L70.05 173.61L59.61 163.04L64.3 158.73C66.89 156.36 69 154.01 69 153.51C69 153.01 67.56 151.11 65.8 149.29L62.59 145.98L58.3 150.2L54 154.42ZM74 173.42V211.08L81.75 210.79L89.5 210.5L89.77 182.56L90.03 154.62L86.31 150.81C84.27 148.71 82.15 147 81.6 147C80.22 147 75 152.13 75 153.48C75 154.09 76.8 156.29 79 158.38C81.2 160.46 83 162.71 83 163.38C83 164.04 80.97 166.57 78.5 169L74 173.42ZM57.69 587.19C59.73 589.29 61.91 591 62.52 591C63.13 591 64.88 589.7 66.4 588.1C69.57 584.8 69.25 583.47 64.09 578.56C62.39 576.95 61 575.13 61 574.52C61 573.91 63.03 571.43 65.5 569L70 564.58V526.92L54.5 527.5L53.97 583.38L57.69 587.19ZM54.71 680.37C55.09 680.76 58.58 680.95 62.46 680.79L69.5 680.5L69.77 662.06L70.05 643.61L64.77 638.23L59.5 632.85L64.26 628.68C66.88 626.38 69.01 624.07 69.01 623.55C69 623.02 67.56 621.11 65.8 619.29L62.59 615.98L58.3 620.2L54 624.42V652.04C54 667.24 54.32 679.98 54.71 680.37ZM78.2 588.71L81.41 592.02L85.72 587.78L90.03 583.55L89.77 555.53L89.5 527.5H74.5L74.23 545.94L73.95 564.39L79.23 569.74L84.5 575.08L79.75 579.51C77.14 581.95 75 584.27 75 584.68C75 585.08 76.44 586.89 78.2 588.71ZM125 232.41V289H139V249.39L135.5 246C133.57 244.13 132 242.11 132 241.5C132 240.89 133.57 238.87 135.5 237C139.54 233.08 139.88 230.57 136.83 227.31C133.94 224.24 133.24 224.36 128.79 228.7L125 232.41ZM5 249.39V289H19V232.41L15.01 228.51L11.02 224.61L8.01 227.49C4.13 231.2 4.22 232.85 8.5 237C10.43 238.87 12 240.89 12 241.5C12 242.11 10.43 244.13 8.5 246L5 249.39ZM125 75.41V132H139V92.41L130.99 84.59L135 80.5C139.74 75.67 139.94 73.33 135.87 70.12L132.86 67.73L128.93 71.57L125 75.41ZM7.75 510.52C9.26 511.85 10.71 512.95 10.96 512.97C11.21 512.99 13.12 511.33 15.21 509.3L19 505.59V449H5V488.59L9 492.5L13.01 496.41L9 500.5C4.28 505.31 4.04 507.25 7.75 510.52ZM5 562.41V602H19V545.41L15.01 541.51L11.02 537.61L8.01 540.49C6.35 542.08 5 544.06 5 544.9C5 545.74 6.8 548.26 9 550.5L13.01 554.59L5 562.41ZM5 92.41V132H19V75.41L15.01 71.51L11.02 67.61L8.01 70.49C6.35 72.08 5 74.06 5 74.9C5 75.74 6.8 78.26 9 80.5L13.01 84.59L5 92.41ZM125 545.41V602H139V562.41L130.99 554.59L135 550.5C137.2 548.26 139 545.74 139 544.9C139 544.06 137.65 542.08 135.99 540.49L132.98 537.61L125 545.41ZM7.69 667.2C9.16 668.74 10.61 670 10.89 670C11.18 670 13.12 668.33 15.21 666.3L19 662.59V606H5V645.59L13.01 653.41L9 657.5C6.8 659.74 5 662.21 5 662.98C5 663.76 6.21 665.65 7.69 667.2ZM128.7 666.21C130.74 668.29 132.63 670 132.9 670C134.11 670 139 664.47 139 663.1C139 662.26 137.2 659.74 135 657.5L130.99 653.41L139 645.59V606H125V662.42L128.7 666.21ZM128.7 509.21C130.74 511.29 132.63 513 132.9 513C134.11 513 139 507.47 139 506.1C139 505.26 137.2 502.74 135 500.5L130.99 496.41L135 492.5L139 488.59V449H125V505.42L128.7 509.21ZM7.69 197.2C9.16 198.74 10.61 200 10.89 200C11.18 200 13.12 198.33 15.21 196.3L19 192.59V136H5L5.03 155.75L5.07 175.5L9.03 179.47L12.99 183.44L8.99 187.51C6.8 189.74 5 192.21 5 192.98C5 193.76 6.21 195.65 7.69 197.2ZM128.62 196C130.61 198.2 132.49 200 132.81 200C134.09 200 139 194.53 139 193.1C139 192.26 137.22 189.76 135.04 187.54L131.07 183.5L135.04 179.21L139 174.91V136H125V191.99L128.62 196ZM125.67 445.33C126.03 445.7 129.18 446 132.67 446H139V406.58L134.86 402.35L130.71 398.13L134.86 393.91C139.57 389.1 139.89 387.57 136.83 384.31C133.94 381.24 133.24 381.36 128.79 385.7L125 389.41V417.04C125 432.23 125.3 444.97 125.67 445.33ZM5 406.39V446.09L18.5 445.5L18.77 417.56L19.03 389.62L15.31 385.81C13.27 383.71 11.15 382 10.61 382C8.89 382 5 386.28 5 388.17C5 389.17 6.57 391.74 8.5 393.87C10.43 396 12 398.16 12 398.68C12 399.19 10.43 401.13 8.5 403L5 406.39ZM128.69 352.19C130.73 354.29 132.85 356 133.39 356C135.16 356 139 351.69 139 349.71C139 348.64 137.15 345.97 134.89 343.78L130.79 339.79L134.89 335.61L139 331.42V291.91L125.5 292.5L125.23 320.44L124.97 348.38L128.69 352.19ZM7.17 353.69C10.1 356.8 10.97 356.64 15.31 352.19L19.03 348.38L18.77 320.44L18.5 292.5L5 291.91V331.42L9.21 335.71L13.42 340L9.21 344.29C4.41 349.18 4.13 350.45 7.17 353.69ZM54 684V736H59.15C64.09 736 64.24 735.92 62.65 734.17C60.28 731.54 60.5 730.91 65.5 726L70 721.58V684H54ZM81.35 734.17C79.76 735.92 79.91 736 84.85 736H90V684H74V721.58L78.5 726C83.5 730.91 83.72 731.54 81.35 734.17ZM74 16.42V54H90V2H84.85C79.91 2 79.76 2.08 81.35 3.83C83.72 6.46 83.5 7.09 78.5 12L74 16.42ZM54 2V54H70V16.42L65.01 11.51L60.03 6.6L62.19 4.3L64.35 2H54ZM38 2V54H51V2H38ZM93 2V54H106V2H93ZM38 684V736H51V684H38ZM93 684V736H106V684H93ZM7.75 40.52C9.26 41.85 10.71 42.95 10.96 42.97C11.21 42.99 13.12 41.33 15.21 39.3L19 35.59V2H5V18.59L9 22.5L13.01 26.41L9 30.5C4.28 35.31 4.04 37.25 7.75 40.52ZM5 719.41V736H19V702.41L15.01 698.51L11.02 694.61L8.01 697.49C6.35 699.08 5 701.06 5 701.9C5 702.74 6.8 705.26 9 707.5L13.01 711.59L5 719.41ZM125 702.41V736H139V719.41L130.99 711.59L135 707.5C137.2 705.26 139 702.74 139 701.9C139 701.06 137.65 699.08 135.99 697.49L132.98 694.61L125 702.41ZM128.7 39.21C130.74 41.29 132.63 43 132.9 43C134.11 43 139 37.47 139 36.1C139 35.26 137.2 32.74 135 30.5L130.99 26.41L135 22.5L139 18.59V2H125V35.42L128.7 39.21ZM67.98 578.48C69.86 580.42 71.67 582 72 582C72.33 582 74.14 580.42 76.02 578.48L79.43 574.96L75.71 571.25L72 567.53L68.29 571.25L64.57 574.96L67.98 578.48ZM67.98 166.48C69.86 168.42 71.67 170 72 170C72.33 170 74.14 168.42 76.02 166.48L79.43 162.96L75.71 159.25L72 155.53L68.29 159.25L64.57 162.96L67.98 166.48ZM67.98 108.48C69.86 110.42 71.67 112 72 112C72.33 112 74.14 110.42 76.02 108.48L79.43 104.96L72 97.53L64.57 104.96L67.98 108.48ZM67.98 421.48C69.86 423.42 71.67 425 72 425C72.33 425 74.14 423.42 76.02 421.48L79.43 417.96L75.71 414.25L72 410.53L68.29 414.25L64.57 417.96L67.98 421.48ZM67.98 460.48C69.86 462.42 71.67 464 72 464C72.33 464 74.14 462.42 76.02 460.48L79.43 456.96L75.71 453.25L72 449.53L68.29 453.25L64.57 456.96L67.98 460.48ZM67.98 636.48C69.86 638.42 71.67 640 72 640C72.33 640 74.14 638.42 76.02 636.48L79.43 632.96L75.71 629.25L72 625.53L68.29 629.25L64.57 632.96L67.98 636.48ZM67.98 284.48C69.86 286.42 71.67 288 72 288C72.33 288 74.14 286.42 76.02 284.48L79.43 280.96L75.71 277.25L72 273.53L68.29 277.25L64.57 280.96L67.98 284.48ZM67.98 323.48C69.86 325.42 71.67 327 72 327C72.33 327 74.14 325.42 76.02 323.48L79.43 319.96L75.71 316.25L72 312.53L68.29 316.25L64.57 319.96L67.98 323.48ZM16.67 363.01C18.13 364.65 19.8 366 20.37 366C20.94 366 22.89 364.56 24.71 362.8L28.01 359.6L20.59 352L17.3 355.2C15.48 356.95 14 358.76 14 359.2C14 359.65 15.2 361.36 16.67 363.01ZM68 127.5C69.87 129.43 71.67 131 72 131C72.33 131 74.13 129.43 76 127.5L79.38 124.01L76.5 121C74.92 119.35 72.89 118 72 118C71.11 118 69.08 119.35 67.5 121L64.62 124.01L68 127.5ZM13.69 673.09L20.4 680.01L24.2 676.3L28 672.59L24.8 669.3C23.05 667.48 21.04 666 20.35 666C19.67 666 17.89 667.6 16.4 669.54L13.69 673.09ZM115.99 672.4L123.44 680.03L126.89 676.58L130.34 673.13L127.62 669.57C126.12 667.6 124.38 666 123.75 666C123.11 666 121.11 667.44 119.29 669.2L115.99 672.4ZM87.69 598.2C89.16 599.74 90.83 601 91.38 601C92.72 601 98 595.9 98 594.61C98 594.05 96.56 592.11 94.8 590.29L91.6 586.99L88.3 590.19C86.49 591.95 85 593.84 85 594.39C85 594.94 86.21 596.65 87.69 598.2ZM16.69 539.2C18.16 540.74 19.83 542 20.38 542C21.72 542 27 536.9 27 535.61C27 535.05 25.56 533.11 23.8 531.29L20.6 527.99L17.3 531.19C15.49 532.95 14 534.84 14 535.39C14 535.94 15.21 537.65 16.69 539.2ZM48.69 598.2C50.16 599.74 51.83 601 52.38 601C53.72 601 59 595.9 59 594.61C59 594.05 57.56 592.11 55.8 590.29L52.6 586.99L49.3 590.19C47.49 591.95 46 593.84 46 594.39C46 594.94 47.21 596.65 48.69 598.2ZM119.69 539.2C121.16 540.74 122.83 542 123.38 542C124.72 542 130 536.9 130 535.61C130 535.05 128.56 533.11 126.8 531.29L123.6 527.99L120.3 531.19C118.49 532.95 117 534.84 117 535.39C117 535.94 118.21 537.65 119.69 539.2ZM87.69 128.2C89.16 129.74 90.83 131 91.38 131C92.72 131 98 125.9 98 124.61C98 124.05 96.56 122.11 94.8 120.29L91.6 116.99L88.3 120.19C86.49 121.95 85 123.84 85 124.39C85 124.94 86.21 126.65 87.69 128.2ZM48.69 128.2C50.16 129.74 51.83 131 52.38 131C53.72 131 59 125.9 59 124.61C59 124.05 57.56 122.11 55.8 120.29L52.6 116.99L49.3 120.19C47.49 121.95 46 123.84 46 124.39C46 124.94 47.21 126.65 48.69 128.2ZM87.69 304.2C89.16 305.74 90.83 307 91.38 307C92.72 307 98 301.9 98 300.61C98 300.05 96.56 298.11 94.8 296.29L91.6 292.99L88.3 296.19C86.49 297.95 85 299.84 85 300.39C85 300.94 86.21 302.65 87.69 304.2ZM48.69 304.2C50.16 305.74 51.83 307 52.38 307C53.72 307 59 301.9 59 300.61C59 300.05 57.56 298.11 55.8 296.29L52.6 292.99L49.3 296.19C47.49 297.95 46 299.84 46 300.39C46 300.94 47.21 302.65 48.69 304.2ZM88.2 147.71L91.4 151.01L94.7 147.81C96.51 146.05 98 144.11 98 143.49C98 142.19 92.81 137 91.5 137C90.25 137 85 142.16 85 143.39C85 143.95 86.44 145.89 88.2 147.71ZM49.2 147.71L52.4 151.01L55.7 147.81C57.51 146.05 59 144.11 59 143.49C59 142.19 53.81 137 52.5 137C51.25 137 46 142.16 46 143.39C46 143.95 47.44 145.89 49.2 147.71ZM49.2 441.71L52.4 445.01L55.7 441.81C57.51 440.05 59 438.11 59 437.49C59 436.19 53.81 431 52.5 431C51.25 431 46 436.16 46 437.39C46 437.95 47.44 439.89 49.2 441.71ZM17.2 382.71L20.4 386.01L23.7 382.81C25.51 381.05 27 379.11 27 378.49C27 377.19 21.81 372 20.5 372C19.25 372 14 377.16 14 378.39C14 378.95 15.44 380.89 17.2 382.71ZM77.98 137.48C79.86 139.42 81.73 141 82.15 141C83.12 141 88 134.61 88 133.34C88 132.81 86.64 131.07 84.98 129.48L81.95 126.58L74.57 133.96L77.98 137.48ZM67.48 616.98C71.17 620.83 73.06 620.79 76.37 616.79L79.04 613.57L75.52 610.05L72 606.53L64.58 613.95L67.48 616.98ZM16.67 69.01C18.13 70.65 19.79 72 20.36 72C21.72 72 27 66.91 27 65.61C27 65.05 25.56 63.11 23.8 61.29L20.6 57.99L17.3 61.19C15.49 62.95 14 64.76 14 65.2C14 65.65 15.2 67.36 16.67 69.01ZM119.69 69.2C121.16 70.74 122.89 72 123.52 72C124.72 72 130 66.54 130 65.31C130 64.92 128.56 63.11 126.8 61.29L123.6 57.99L120.3 61.19C118.49 62.95 117 64.84 117 65.39C117 65.94 118.21 67.65 119.69 69.2ZM129.09 372.45C130.8 374.4 132.47 376 132.8 376C134.13 376 139 370.51 139 369C139 368.11 137.63 366.06 135.96 364.46L132.91 361.54L129.44 365.22L125.97 368.9L129.09 372.45ZM58.62 137.57C60.06 139.46 61.55 141 61.92 141C62.3 141 64.14 139.42 66.02 137.48L69.43 133.96L62.05 126.58L59.02 129.48C57.36 131.07 56 132.77 56 133.25C56 133.74 57.18 135.68 58.62 137.57ZM68.06 597.56C69.89 599.45 71.67 601 72 601C72.33 601 74.12 599.44 75.98 597.52L79.35 594.05L76.18 591.02C72.23 587.25 71.2 587.25 67.61 591.06L64.72 594.12L68.06 597.56ZM7.69 373.2C9.16 374.74 10.71 376 11.11 376C11.52 376 13.21 374.36 14.86 372.36L17.86 368.72L14.47 365.13L11.09 361.54L8.04 364.46C4.3 368.04 4.24 369.6 7.69 373.2ZM87.69 617.2C89.16 618.74 90.83 620 91.38 620C92.72 620 98 614.9 98 613.62C98 612.22 92.87 607 91.5 607C90.19 607 85 612.19 85 613.5C85 613.99 86.21 615.65 87.69 617.2ZM48.69 617.2C50.16 618.74 51.83 620 52.38 620C53.72 620 59 614.9 59 613.62C59 612.22 53.87 607 52.5 607C51.19 607 46 612.19 46 613.5C46 613.99 47.21 615.65 48.69 617.2ZM87.69 441.2C89.16 442.74 90.83 444 91.38 444C92.72 444 98 438.9 98 437.62C98 436.22 92.87 431 91.5 431C90.19 431 85 436.19 85 437.5C85 437.99 86.21 439.65 87.69 441.2ZM119.69 382.2C121.16 383.74 122.83 385 123.38 385C124.72 385 130 379.9 130 378.62C130 377.22 124.87 372 123.5 372C122.19 372 117 377.19 117 378.5C117 378.99 118.21 380.65 119.69 382.2ZM16.69 206.2C18.16 207.74 19.83 209 20.38 209C21.72 209 27 203.9 27 202.62C27 201.22 21.87 196 20.5 196C19.19 196 14 201.19 14 202.5C14 202.99 15.21 204.65 16.69 206.2ZM119.69 206.2C121.16 207.74 122.83 209 123.38 209C124.72 209 130 203.9 130 202.62C130 201.22 124.87 196 123.5 196C122.19 196 117 201.19 117 202.5C117 202.99 118.21 204.65 119.69 206.2ZM120.32 363.75C121.44 364.99 122.87 366 123.51 366C124.77 366 130 360.53 130 359.2C130 358.76 128.51 356.95 126.7 355.19L123.4 351.99L120.09 355.41C116.62 358.99 116.64 359.66 120.32 363.75ZM77.98 607.48C79.86 609.42 81.62 611 81.89 611C82.89 611 88 605.59 87.97 604.56C87.95 603.98 86.56 601.98 84.87 600.12L81.79 596.74L78.18 600.35L74.57 603.96L77.98 607.48ZM67.7 146.78C71.24 150.75 72.49 150.76 76.16 146.83L79.12 143.66L75.56 140.09L72 136.53L68.45 140.08L64.9 143.64L67.7 146.78ZM58.75 608.1C60.26 609.58 61.75 610.83 62.05 610.89C62.36 610.95 64.14 609.42 66.02 607.48L69.43 603.96L65.82 600.35L62.21 596.74L59.13 600.12C57.44 601.98 56.05 603.93 56.03 604.46C56.01 604.99 57.24 606.63 58.75 608.1ZM67.95 479.41C69.84 481.39 71.67 483 72 483C72.33 483 74.1 481.46 75.92 479.59L79.22 476.17L75.86 473.12C74.01 471.43 72.26 470.05 71.96 470.03C71.67 470.01 69.87 471.31 67.96 472.91L64.5 475.83L67.95 479.41ZM67.79 264.72C71.19 268.77 72.47 268.78 76.16 264.83L79.12 261.66L75.56 258.09L72 254.53L68.54 258.02L65.09 261.5L67.79 264.72ZM16.98 695.48C18.86 697.42 20.73 699 21.15 699C21.56 699 23.11 697.4 24.6 695.46L27.31 691.91L23.94 688.44L20.57 684.96L17.07 688.46L13.57 691.96L16.98 695.48ZM120.12 49.63L123.43 53.04L126.95 49.52L130.47 46L126.77 42.31C123.1 38.63 123.07 38.62 120.95 40.55C116.66 44.42 116.53 45.92 120.12 49.63ZM77.48 293.98C81.02 297.68 81.66 297.7 85.2 294.31C88.73 290.93 88.71 290.05 84.98 286.48L81.95 283.58L78.27 287.27L74.58 290.95L77.48 293.98ZM58.69 294.2C62.07 297.73 62.95 297.71 66.52 293.98L69.42 290.95L65.73 287.27L62.05 283.58L59.02 286.48C55.32 290.02 55.3 290.66 58.69 294.2ZM119.49 695.4C121 697.38 122.55 699 122.92 699C123.3 699 125.13 697.42 127 695.5L130.39 692L126.98 688.48L123.57 684.96L120.16 688.38L116.74 691.79L119.49 695.4ZM17.02 49.52L20.43 53.04L27.26 46.21L24.51 42.6C23 40.62 21.45 39 21.08 39C20.7 39 18.87 40.58 17 42.5L13.61 46L17.02 49.52ZM58.69 451.2C60.16 452.74 61.65 454 61.99 454C62.33 454 64.13 452.43 66 450.5L69.38 447.01L66.5 444C64.92 442.35 63.12 441 62.5 441C61.19 441 56 446.19 56 447.5C56 447.99 57.21 449.65 58.69 451.2ZM77.97 450.47C79.85 452.41 81.62 454 81.89 454C82.85 454 88 448.62 88 447.62C88 446.36 82.94 441 81.76 441C81.28 441 79.46 442.33 77.72 443.97L74.54 446.93L77.97 450.47ZM48.98 460.48L52.4 464.01L55.7 460.81C57.51 459.05 58.99 457.36 58.97 457.05C58.95 456.75 57.56 454.98 55.87 453.12L52.79 449.74L49.18 453.35L45.57 456.96L48.98 460.48ZM116.57 221.96L123.43 229.04L130.43 222.04L127 218.5L123.57 214.96L116.57 221.96ZM45.57 280.96L52.43 288.04L59.43 281.04L52.57 273.96L45.57 280.96ZM17 225.5L20.43 229.04L27.43 222.04L20.57 214.96L17.07 218.46L13.57 221.96L17 225.5ZM84.57 280.96L91.43 288.04L98.43 281.04L91.57 273.96L84.57 280.96ZM84.57 456.96L91.43 464.04L98.43 457.04L91.57 449.96L84.57 456.96ZM116.57 515.96L123.43 523.04L130.43 516.04L127 512.5L123.57 508.96L120.07 512.46L116.57 515.96ZM17 519.5L20.43 523.04L27.43 516.04L24 512.5L20.57 508.96L17.07 512.46L13.57 515.96L17 519.5ZM68.19 303.7C69.95 305.51 71.67 307 72 307C72.33 307 74.05 305.51 75.81 303.7L79.01 300.4L72 293.61L64.99 300.4L68.19 303.7ZM68.19 440.7C69.95 442.51 71.67 444 72 444C72.33 444 74.05 442.51 75.81 440.7L79.01 437.4L72 430.61L64.99 437.4L68.19 440.7ZM129.69 59.2C132.98 62.63 134.01 62.68 136.95 59.56C139.74 56.59 139.18 53.35 135.42 50.64C132.85 48.79 132.82 48.8 129.92 51.58C126.33 55.02 126.31 55.67 129.69 59.2ZM7.17 529.69C9.95 532.64 10.77 532.59 14.2 529.31C17.73 525.93 17.7 525.05 14 521.5L11 518.63L8 521.5C4.43 524.92 4.26 526.59 7.17 529.69ZM129.69 529.2C132.92 532.57 133.69 532.64 136.69 529.83C139.77 526.93 139.6 524.95 136 521.5L133 518.63L130 521.5C126.33 525.02 126.3 525.66 129.69 529.2ZM129.69 686.2C131.16 687.74 132.6 689 132.88 689C134.09 689 139 683.49 139 682.13C139 680.33 135.12 676 133.51 676C132.19 676 127 681.18 127 682.5C127 682.99 128.21 684.65 129.69 686.2ZM129.69 216.2C131.16 217.74 132.6 219 132.88 219C134.09 219 139 213.49 139 212.13C139 210.33 135.12 206 133.51 206C132.19 206 127 211.18 127 212.5C127 212.99 128.21 214.65 129.69 216.2ZM7.69 216.2C9.16 217.74 10.6 219 10.88 219C11.85 219 17 213.62 17 212.62C17 211.29 11.91 206 10.63 206C9.03 206 5 210.2 5 211.87C5 212.71 6.21 214.65 7.69 216.2ZM7.63 59.93C7.69 59.97 7.74 60.01 7.79 60.05C9.28 61.22 10.06 61.83 10.81 61.81C11.64 61.78 12.45 60.98 14.2 59.31C17.73 55.93 17.7 55.05 14 51.5L11 48.63L8 51.5C4.31 55.04 4.21 57.23 7.63 59.93ZM66.46 733.96C67.69 735.31 69.56 736 72 736C74.44 736 76.31 735.31 77.54 733.96C79.35 731.96 79.32 731.85 75.69 728.23L72 724.53L68.31 728.23C64.68 731.85 64.65 731.96 66.46 733.96ZM7.69 686.2C9.16 687.74 10.6 689 10.88 689C11.91 689 17 683.59 17 682.5C17 680.49 11.26 675.72 9.87 676.58C4.33 680.01 3.84 682.17 7.69 686.2ZM68.2 9.71C69.96 11.52 71.67 13 72 13C72.33 13 74.12 11.44 75.96 9.54L79.32 6.08L76.91 4.07C73.6 1.32 68.54 1.38 66.56 4.21C65.11 6.29 65.2 6.61 68.2 9.71ZM136.96 517.45C138.76 519.62 139 519.43 139 515.79C139 512.79 138.89 512.68 137.34 514.24C135.96 515.61 135.9 516.17 136.96 517.45ZM136.96 556.45C138.76 558.62 139 558.43 139 554.79C139 551.79 138.89 551.68 137.34 553.24C135.96 554.61 135.9 555.17 136.96 556.45ZM136.96 693.45C138.76 695.62 139 695.43 139 691.79C139 688.79 138.89 688.68 137.34 690.24C135.96 691.61 135.9 692.17 136.96 693.45ZM136.96 654.45C138.76 656.62 139 656.43 139 652.79C139 649.79 138.89 649.68 137.34 651.24C135.96 652.61 135.9 653.17 136.96 654.45ZM136.96 86.45C138.76 88.62 139 88.43 139 84.79C139 81.79 138.89 81.68 137.34 83.24C135.96 84.61 135.9 85.17 136.96 86.45ZM136.96 184.45C138.76 186.62 139 186.43 139 182.79C139 179.79 138.89 179.68 137.34 181.24C135.96 182.61 135.9 183.17 136.96 184.45ZM136.96 223.45C138.76 225.62 139 225.43 139 221.79C139 218.79 138.89 218.68 137.34 220.24C135.96 221.61 135.9 222.17 136.96 223.45ZM136.96 47.45C138.76 49.62 139 49.43 139 45.79C139 42.79 138.89 42.68 137.34 44.24C135.96 45.61 135.9 46.17 136.96 47.45ZM136.96 341.45C138.76 343.62 139 343.43 139 339.79C139 336.79 138.89 336.68 137.34 338.24C135.96 339.61 135.9 340.17 136.96 341.45ZM136.96 399.45C138.76 401.62 139 401.43 139 397.79C139 394.79 138.89 394.68 137.34 396.24C135.96 397.61 135.9 398.17 136.96 399.45ZM136.96 380.45C138.76 382.62 139 382.43 139 378.79C139 375.79 138.89 375.68 137.34 377.24C135.96 378.61 135.9 379.17 136.96 380.45ZM5 516C5 519.24 5.1 519.33 6.71 517.71C8.33 516.1 8.33 515.9 6.71 514.29C5.1 512.67 5 512.76 5 516ZM5 535C5 538.24 5.1 538.33 6.71 536.71C8.33 535.1 8.33 534.9 6.71 533.29C5.1 531.67 5 531.76 5 535ZM5 398C5 401.24 5.1 401.33 6.71 399.71C8.33 398.1 8.33 397.9 6.71 396.29C5.1 394.67 5 394.76 5 398ZM5 653C5 656.24 5.1 656.33 6.71 654.71C8.33 653.1 8.33 652.9 6.71 651.29C5.1 649.67 5 649.76 5 653ZM5 692C5 695.24 5.1 695.33 6.71 693.71C8.33 692.1 8.33 691.9 6.71 690.29C5.1 688.67 5 688.76 5 692ZM5 711C5 714.24 5.1 714.33 6.71 712.71C8.33 711.1 8.33 710.9 6.71 709.29C5.1 707.67 5 707.76 5 711ZM5 340C5 343.24 5.1 343.33 6.71 341.71C8.33 340.1 8.33 339.9 6.71 338.29C5.1 336.67 5 336.76 5 340ZM5 359C5 362.24 5.1 362.33 6.71 360.71C8.33 359.1 8.33 358.9 6.71 357.29C5.1 355.67 5 355.76 5 359ZM5 183C5 186.24 5.1 186.33 6.71 184.71C8.33 183.1 8.33 182.9 6.71 181.29C5.1 179.67 5 179.76 5 183ZM5 222C5 225.24 5.1 225.33 6.71 223.71C8.33 222.1 8.33 221.9 6.71 220.29C5.1 218.67 5 218.76 5 222ZM5 46C5 49.24 5.1 49.33 6.71 47.71C8.33 46.1 8.33 45.9 6.71 44.29C5.1 42.67 5 42.76 5 46ZM5 26.39C5 28.28 5.4 28.78 6.55 28.34C8.32 27.66 8.12 24.87 6.25 24.25C5.47 23.99 5 24.79 5 26.39ZM5 65.71C5 68.22 5.13 68.3 6.62 66.81C7.51 65.92 7.93 64.7 7.56 64.1C6.33 62.11 5 62.95 5 65.71ZM136.44 497.9C137.67 499.89 139 499.05 139 496.29C139 493.78 138.87 493.7 137.38 495.19C136.49 496.08 136.07 497.3 136.44 497.9ZM5 241.71C5 244.22 5.13 244.3 6.62 242.81C7.51 241.92 7.93 240.7 7.56 240.1C6.33 238.11 5 238.95 5 241.71ZM137.09 66.62C138.4 68.2 138.52 68.16 138.83 66.08C139.24 63.3 138.34 62.26 136.83 63.77C135.97 64.63 136.04 65.34 137.09 66.62ZM137.09 242.62C138.4 244.2 138.52 244.16 138.83 242.08C139.24 239.3 138.34 238.26 136.83 239.77C135.97 240.63 136.04 241.34 137.09 242.62ZM5 378.62C5 380.79 5.25 381.04 6.44 380.05C7.23 379.39 7.63 378.21 7.33 377.43C6.43 375.08 5 375.81 5 378.62ZM136.67 27.57C137.57 29.92 139 29.19 139 26.38C139 24.21 138.75 23.96 137.56 24.95C136.77 25.61 136.37 26.79 136.67 27.57ZM5 672.62C5 674.79 5.25 675.04 6.44 674.05C7.23 673.39 7.63 672.21 7.33 671.43C6.43 669.08 5 669.81 5 672.62ZM5 496.38C5 499.36 5.29 499.56 6.89 497.63C7.75 496.59 7.66 495.96 6.51 495.01C5.23 493.94 5 494.15 5 496.38ZM5 84.38C5 87.36 5.29 87.56 6.89 85.63C7.75 84.59 7.66 83.96 6.51 83.01C5.23 81.94 5 82.15 5 84.38ZM137.11 203.63C138.71 205.56 139 205.36 139 202.38C139 200.15 138.77 199.94 137.49 201.01C136.34 201.96 136.25 202.59 137.11 203.63ZM5 202.38C5 205.36 5.29 205.56 6.89 203.63C7.75 202.59 7.66 201.96 6.51 201.01C5.23 199.94 5 200.15 5 202.38ZM137.11 536.63C138.71 538.56 139 538.36 139 535.38C139 533.15 138.77 532.94 137.49 534.01C136.34 534.96 136.25 535.59 137.11 536.63ZM5 554.38C5 557.36 5.29 557.56 6.89 555.63C7.75 554.59 7.66 553.96 6.51 553.01C5.23 551.94 5 552.15 5 554.38ZM137.11 712.63C138.71 714.56 139 714.36 139 711.38C139 709.15 138.77 708.94 137.49 710.01C136.34 710.96 136.25 711.59 137.11 712.63ZM137.11 673.63C138.71 675.56 139 675.36 139 672.38C139 670.15 138.77 669.94 137.49 671.01C136.34 671.96 136.25 672.59 137.11 673.63ZM137.31 360.88C138.31 362.1 138.55 361.98 138.83 360.08C139.24 357.28 138.19 356.08 137 358C136.45 358.89 136.56 359.98 137.31 360.88Z" fill="#231A01"/>
</g>
<defs>
<clipPath id="clip0_2087_14208">
<rect width="144" height="738" fill="white"/>
</clipPath>
</defs>
</svg>
