<svg width="303" height="41" viewBox="0 0 303 41" fill="none" xmlns="http://www.w3.org/2000/svg">
<g filter="url(#filter0_d_421_323)">
<path d="M300.882 1.46729L300.678 2.63818L299.707 8.22607L299.562 9.05518H285.318L284.387 14.4097H296.462L296.261 15.5796L295.333 20.9683L295.191 21.7983H283.104L282.016 28.0581H296.267L296.062 29.23L295.09 34.7964L294.946 35.6235H271.671L271.874 34.4536L277.439 2.29639L277.583 1.46729H300.882Z" fill="white" stroke="black" stroke-width="2"/>
<path d="M259.218 1.02588L259.219 1.0249C261.532 1.05616 263.56 1.5502 265.259 2.55615H265.258C266.93 3.53781 268.266 4.85631 269.251 6.50342C270.217 8.1183 270.861 9.91405 271.189 11.8804L271.304 12.6147C271.538 14.3332 271.545 16.0788 271.329 17.8491V17.8521L271.152 19.2661L271.151 19.2729L271.15 19.2808C270.844 21.4569 270.26 23.5508 269.401 25.5601C268.551 27.57 267.419 29.3703 266.006 30.9556C264.591 32.5596 262.906 33.8273 260.96 34.7534L260.957 34.7554C258.988 35.6837 256.786 36.1117 254.371 36.0649H254.37C252.045 36.0181 250.007 35.517 248.297 34.5142C246.625 33.5332 245.282 32.2163 244.282 30.5718L244.278 30.5649C243.311 28.9482 242.667 27.1501 242.339 25.1812V25.1792C242.014 23.2123 241.976 21.2031 242.223 19.1548V19.1519L242.399 17.7163L242.4 17.7065L242.402 17.6968C242.709 15.548 243.293 13.4751 244.152 11.48L244.154 11.4741C245.033 9.4695 246.171 7.67302 247.567 6.09033L247.571 6.08545C248.913 4.5815 250.486 3.38589 252.285 2.50342L252.647 2.33154C254.625 1.40775 256.822 0.980119 259.218 1.02588ZM258.74 8.67725C257.521 8.62582 256.545 8.8743 255.761 9.36572L255.758 9.36768C254.926 9.88466 254.231 10.5876 253.675 11.4937L253.671 11.4985C253.086 12.4364 252.621 13.4679 252.277 14.5962C251.922 15.7605 251.67 16.8746 251.516 17.938L251.515 17.937L251.318 19.4272C251.22 20.3007 251.157 21.2954 251.128 22.4136C251.115 23.4642 251.217 24.4753 251.433 25.4487C251.646 26.3532 252.031 27.0701 252.569 27.6333C253.015 28.0864 253.716 28.3959 254.822 28.4341H254.831C256.035 28.4859 256.995 28.2393 257.763 27.7505C258.621 27.1992 259.333 26.4821 259.904 25.5884C260.503 24.6355 260.975 23.5979 261.318 22.4722C261.672 21.3115 261.917 20.2024 262.057 19.144V19.1431L262.256 17.6411C262.368 16.7592 262.432 15.7688 262.446 14.6675C262.46 13.612 262.35 12.6046 262.12 11.644C261.907 10.755 261.523 10.054 260.986 9.50537L260.979 9.49756C260.547 9.04675 259.853 8.72948 258.74 8.67822V8.67725Z" fill="white" stroke="black" stroke-width="2"/>
<path d="M223.153 1.46729L222.95 2.63818L220.904 14.4097H230.654L232.751 2.29639L232.894 1.46729H241.927L241.722 2.63818L236.135 34.7954L235.991 35.6235H226.983L227.185 34.4536L229.344 21.9751H219.59L217.362 34.7954L217.219 35.6235H208.188L208.39 34.4536L213.956 2.29639L214.099 1.46729H223.153Z" fill="white" stroke="black" stroke-width="2"/>
<path d="M196.868 1.00391L196.867 1.00488C199.353 1.0515 201.532 1.58039 203.358 2.64062C205.169 3.6916 206.572 5.16046 207.557 7.02832L207.738 7.37793C208.619 9.14644 209.097 11.1761 209.199 13.4434L209.247 14.4912L208.197 14.4883L201.219 14.4658L200.196 14.4629L200.222 13.4404C200.249 12.3595 200.131 11.4697 199.896 10.751C199.68 10.0949 199.317 9.60928 198.8 9.25391L198.792 9.24902C198.319 8.91707 197.557 8.67537 196.395 8.63477V8.63379C195.199 8.59511 194.271 8.84375 193.551 9.3125L193.542 9.31836C192.753 9.819 192.094 10.4987 191.565 11.376C191.027 12.2793 190.605 13.2762 190.304 14.3711L190.303 14.375C189.99 15.4997 189.756 16.5989 189.601 17.6729L189.337 19.6865C189.223 20.587 189.129 21.5862 189.057 22.6836L189.058 22.6846C189.003 23.7083 189.063 24.691 189.237 25.6348C189.411 26.4898 189.753 27.1613 190.244 27.6875C190.654 28.1129 191.331 28.4177 192.444 28.4561C193.583 28.4812 194.505 28.3012 195.242 27.959C195.998 27.5934 196.607 27.0688 197.083 26.373C197.569 25.6486 197.929 24.7569 198.143 23.6748L198.3 22.8789L199.11 22.8682L205.979 22.7803L207.103 22.7656L206.986 23.8828C206.719 26.4623 205.863 28.7023 204.391 30.5625C202.946 32.388 201.127 33.7764 198.948 34.7236C196.778 35.6671 194.456 36.1122 191.993 36.0654H191.992C189.673 36.0187 187.65 35.5344 185.968 34.5615L185.958 34.5557C184.327 33.5866 183.033 32.2865 182.092 30.6641C181.17 29.0749 180.565 27.3056 180.268 25.3672L180.267 25.3574C179.988 23.4228 179.981 21.4395 180.242 19.4111L180.243 19.4033L180.244 19.3945L180.531 17.4287C180.838 15.3154 181.398 13.2839 182.211 11.3359L182.212 11.332C182.994 9.47828 184.004 7.80696 185.242 6.32324L185.493 6.0293C186.864 4.43879 188.499 3.1915 190.391 2.29297C192.317 1.37783 194.484 0.957175 196.868 1.00391Z" fill="white" stroke="black" stroke-width="2"/>
<path d="M181.735 1.46729L181.531 2.63818L180.559 8.22607L180.414 9.05518H166.17L165.24 14.4097H177.315L177.114 15.5796L176.186 20.9683L176.043 21.7983H163.956L162.868 28.0581H177.119L176.914 29.23L175.943 34.7964L175.798 35.6235H152.524L152.726 34.4536L158.291 2.29639L158.435 1.46729H181.735Z" fill="white" stroke="black" stroke-width="2"/>
<path d="M129.701 1.46729L141.628 1.48975H141.647C143.856 1.53675 145.864 2.01612 147.651 2.94873H147.652C149.464 3.88721 150.875 5.21954 151.859 6.93994H151.858C152.813 8.58731 153.208 10.5129 153.098 12.6704L153.07 13.105C152.865 15.644 152.06 17.8098 150.609 19.5415L150.608 19.5405C149.213 21.2227 147.451 22.4689 145.341 23.2778C143.263 24.0745 141.066 24.4711 138.755 24.4712H138.752L133.916 24.4575L132.12 34.7954L131.977 35.6235H122.947L123.149 34.4536L128.714 2.29639L128.858 1.46533L129.701 1.46729ZM135.234 16.8716L138.997 16.8823C139.907 16.8823 140.713 16.7212 141.429 16.4126C142.134 16.1088 142.695 15.6742 143.131 15.1079L143.139 15.0981C143.569 14.5554 143.865 13.8478 143.992 12.9312L143.996 12.9038C144.123 12.1464 144.085 11.4936 143.914 10.9263L143.912 10.9175L143.909 10.9087C143.757 10.366 143.482 9.95301 143.079 9.6333L143.068 9.62354C142.704 9.32542 142.168 9.11414 141.369 9.07568L136.591 9.05811L135.234 16.8716Z" fill="white" stroke="black" stroke-width="2"/>
<path d="M126.379 1.46729L126.175 2.63818L125.203 8.22607L125.059 9.05518H110.815L109.884 14.4097H121.959L121.758 15.5796L120.83 20.9683L120.688 21.7983H108.601L107.513 28.0581H121.764L121.559 29.23L120.587 34.7964L120.443 35.6235H97.1682L97.3704 34.4536L102.936 2.29639L103.079 1.46729H126.379Z" fill="white" stroke="black" stroke-width="2"/>
<path d="M100.622 1.46729L100.419 2.63818L99.4473 8.22607L99.3027 9.05518H89.8115L85.3564 34.7944L85.2129 35.6235H76.1592L76.3623 34.4526L80.7754 9.05518H71.4502L71.6592 7.87939L72.6533 2.29248L72.7998 1.46729H100.622Z" fill="white" stroke="black" stroke-width="2"/>
<path d="M52.1836 1.46729L51.9805 2.63818L49.9346 14.4097H59.6846L61.7812 2.29639L61.9248 1.46729H70.957L70.7529 2.63818L65.165 34.7954L65.0215 35.6235H56.0137L56.2158 34.4536L58.375 21.9751H48.6201L46.3926 34.7954L46.249 35.6235H37.2188L37.4209 34.4536L42.9863 2.29639L43.1299 1.46729H52.1836Z" fill="white" stroke="black" stroke-width="2"/>
<path d="M20.1782 1.46729L19.9731 2.63916L17.1021 19.0737L29.8237 1.87256L30.1235 1.46729H38.9937L38.7905 2.63818L33.2251 34.7944L33.0815 35.6235H24.0269L24.2319 34.4517L27.1021 18.0356L14.3813 35.2192L14.0815 35.6235H5.18896L5.39209 34.4526L10.98 2.29639L11.1235 1.46729H20.1782Z" fill="white" stroke="black" stroke-width="2"/>
</g>
<defs>
<filter id="filter0_d_421_323" x="0" y="0" width="302.071" height="40.0688" filterUnits="userSpaceOnUse" color-interpolation-filters="sRGB">
<feFlood flood-opacity="0" result="BackgroundImageFix"/>
<feColorMatrix in="SourceAlpha" type="matrix" values="0 0 0 0 0 0 0 0 0 0 0 0 0 0 0 0 0 0 127 0" result="hardAlpha"/>
<feOffset dx="-4" dy="3"/>
<feComposite in2="hardAlpha" operator="out"/>
<feColorMatrix type="matrix" values="0 0 0 0 0 0 0 0 0 0 0 0 0 0 0 0 0 0 1 0"/>
<feBlend mode="normal" in2="BackgroundImageFix" result="effect1_dropShadow_421_323"/>
<feBlend mode="normal" in="SourceGraphic" in2="effect1_dropShadow_421_323" result="shape"/>
</filter>
</defs>
</svg>
